riter neue.ufo
<glyph name="exclam" format="1">
  <advance width="500"/>
  <unicode hex="0021"/>
  <outline>
    <contour>
      <point x="255" y="-18" type="curve"/>
      <point x="312" y="-18"/>
      <point x="332" y="-1"/>
      <point x="332" y="61" type="curve" smooth="yes"/>
      <point x="332" y="122"/>
      <point x="312" y="138"/>
      <point x="253" y="138" type="curve" smooth="yes"/>
      <point x="196" y="138"/>
      <point x="175" y="122"/>
      <point x="175" y="61" type="curve" smooth="yes"/>
      <point x="175" y="-1"/>
      <point x="196" y="-18"/>
    </contour>
    <contour>
      <point x="306" y="220" type="curve"/>
      <point x="327" y="723" type="line"/>
      <point x="326" y="742"/>
      <point x="315" y="750"/>
      <point x="297" y="750" type="curve"/>
      <point x="198" y="750" type="line"/>
      <point x="182" y="750"/>
      <point x="170" y="737"/>
      <point x="170" y="718" type="curve"/>
      <point x="199" y="220" type="line"/>
      <point x="199" y="215"/>
      <point x="204" y="211"/>
      <point x="212" y="211" type="curve"/>
      <point x="291" y="211" type="line"/>
      <point x="298" y="211"/>
      <point x="306" y="214"/>
    </contour>
  </outline>
</glyph>
<glyph name="quotedbl" format="1">
  <advance width="456"/>
  <unicode hex="0022"/>
  <outline>
    <contour>
      <point x="205" y="733" type="line"/>
      <point x="205" y="745"/>
      <point x="199" y="750"/>
      <point x="193" y="750" type="curve"/>
      <point x="124" y="750" type="line"/>
      <point x="116" y="750"/>
      <point x="112" y="746"/>
      <point x="112" y="735" type="curve"/>
      <point x="112" y="478" type="line"/>
      <point x="112" y="467"/>
      <point x="116" y="463"/>
      <point x="124" y="463" type="curve"/>
      <point x="193" y="463" type="line"/>
      <point x="199" y="463"/>
      <point x="205" y="468"/>
      <point x="205" y="480" type="curve"/>
    </contour>
    <contour>
      <point x="365" y="733" type="line"/>
      <point x="365" y="745"/>
      <point x="359" y="750"/>
      <point x="353" y="750" type="curve"/>
      <point x="284" y="750" type="line"/>
      <point x="276" y="750"/>
      <point x="272" y="746"/>
      <point x="272" y="735" type="curve"/>
      <point x="272" y="478" type="line"/>
      <point x="272" y="467"/>
      <point x="276" y="463"/>
      <point x="284" y="463" type="curve"/>
      <point x="353" y="463" type="line"/>
      <point x="359" y="463"/>
      <point x="365" y="468"/>
      <point x="365" y="480" type="curve"/>
    </contour>
  </outline>
</glyph>
<glyph name="ampersand" format="1">
  <advance width="653"/>
  <unicode hex="0026"/>
  <outline>
    <contour>
      <point x="230" y="69" type="curve"/>
      <point x="142" y="69"/>
      <point x="107" y="118"/>
      <point x="107" y="198" type="curve"/>
      <point x="107" y="266"/>
      <point x="184" y="387"/>
      <point x="266" y="456" type="curve"/>
      <point x="222" y="458" type="line"/>
      <point x="282" y="398"/>
      <point x="394.740740741" y="301.074074074"/>
      <point x="482" y="211" type="curve"/>
      <point x="397" y="129"/>
      <point x="307" y="69"/>
    </contour>
    <contour>
      <point x="392" y="417" type="curve"/>
      <point x="377" y="433"/>
      <point x="333" y="467"/>
      <point x="292" y="504" type="curve"/>
      <point x="329" y="543"/>
      <point x="363" y="580"/>
      <point x="408" y="580" type="curve"/>
      <point x="445" y="580"/>
      <point x="470" y="582"/>
      <point x="470" y="531" type="curve"/>
      <point x="470" y="500"/>
      <point x="457" y="438"/>
    </contour>
    <contour>
      <point x="760" y="6" type="curve"/>
      <point x="900" y="2" type="line"/>
      <point x="906" y="24" type="line"/>
      <point x="906" y="50"/>
      <point x="847" y="74"/>
      <point x="826" y="88" type="curve" smooth="yes"/>
      <point x="777" y="121"/>
      <point x="681" y="169"/>
      <point x="615" y="220" type="curve"/>
      <point x="749" y="367"/>
      <point x="872" y="584"/>
      <point x="877" y="607" type="curve"/>
      <point x="776" y="600" type="line"/>
      <point x="768" y="600"/>
      <point x="760" y="599"/>
      <point x="758" y="593" type="curve"/>
      <point x="752" y="550"/>
      <point x="679" y="424"/>
      <point x="545" y="276" type="curve"/>
      <point x="491" y="321"/>
      <point x="485" y="331"/>
      <point x="450" y="363" type="curve"/>
      <point x="526" y="394"/>
      <point x="555" y="472"/>
      <point x="555" y="530" type="curve"/>
      <point x="555" y="615"/>
      <point x="533" y="655"/>
      <point x="429" y="655" type="curve"/>
      <point x="253" y="655"/>
      <point x="9" y="342"/>
      <point x="9" y="193" type="curve"/>
      <point x="9" y="74"/>
      <point x="65" y="-14"/>
      <point x="236" y="-14" type="curve"/>
      <point x="339" y="-14"/>
      <point x="448" y="57"/>
      <point x="545" y="149" type="curve"/>
      <point x="620" y="75"/>
      <point x="723" y="11"/>
    </contour>
  </outline>
</glyph>
<glyph name="quotesingle" format="1">
  <advance width="330"/>
  <unicode hex="0027"/>
  <outline>
    <contour>
      <point x="231" y="463" type="line"/>
      <point x="237" y="463"/>
      <point x="245" y="468"/>
      <point x="245" y="480" type="curve"/>
      <point x="245" y="674" type="line"/>
      <point x="245" y="735"/>
      <point x="225" y="751"/>
      <point x="166" y="751" type="curve" smooth="yes"/>
      <point x="109" y="751"/>
      <point x="88" y="735"/>
      <point x="88" y="674" type="curve" smooth="yes"/>
      <point x="88" y="617"/>
      <point x="94" y="593"/>
      <point x="167" y="593" type="curve"/>
      <point x="151" y="627" type="line"/>
      <point x="152" y="478" type="line"/>
      <point x="152" y="467"/>
      <point x="154" y="463"/>
      <point x="162" y="463" type="curve"/>
    </contour>
  </outline>
</glyph>
<glyph name="asterisk" format="1">
  <advance width="550.0"/>
  <unicode hex="002A"/>
  <outline>
    <contour>
      <point x="56" y="285" type="line"/>
      <point x="45" y="278"/>
      <point x="44" y="270"/>
      <point x="46" y="264" type="curve"/>
      <point x="84" y="199" type="line"/>
      <point x="89" y="192"/>
      <point x="94" y="189"/>
      <point x="105" y="196" type="curve"/>
      <point x="498" y="423" type="line"/>
      <point x="508" y="429"/>
      <point x="510" y="435"/>
      <point x="506" y="443" type="curve"/>
      <point x="467" y="508" type="line"/>
      <point x="464" y="513"/>
      <point x="456" y="518"/>
      <point x="444" y="510" type="curve"/>
    </contour>
    <contour>
      <point x="226" y="127" type="line"/>
      <point x="226" y="115"/>
      <point x="233" y="109"/>
      <point x="239" y="108" type="curve"/>
      <point x="314" y="109" type="line"/>
      <point x="323" y="109"/>
      <point x="327" y="113"/>
      <point x="327" y="126" type="curve"/>
      <point x="327" y="580" type="line"/>
      <point x="327" y="591"/>
      <point x="323" y="597"/>
      <point x="314" y="597" type="curve"/>
      <point x="239" y="596" type="line"/>
      <point x="232" y="596"/>
      <point x="226" y="591"/>
      <point x="226" y="577" type="curve"/>
    </contour>
    <contour>
      <point x="445" y="195" type="line"/>
      <point x="456" y="189"/>
      <point x="465" y="194"/>
      <point x="468" y="197" type="curve"/>
      <point x="506" y="264" type="line"/>
      <point x="510" y="272"/>
      <point x="509" y="277"/>
      <point x="498" y="284" type="curve"/>
      <point x="105" y="511" type="line"/>
      <point x="95" y="517"/>
      <point x="89" y="516"/>
      <point x="84" y="508" type="curve"/>
      <point x="47" y="441" type="line"/>
      <point x="44" y="435"/>
      <point x="45" y="428"/>
      <point x="57" y="420" type="curve"/>
    </contour>
  </outline>
</glyph>
<glyph name="zero" format="1">
  <advance width="601"/>
  <unicode hex="0030"/>
  <outline>
    <contour>
      <point x="489" y="-12"/>
      <point x="574" y="84"/>
      <point x="574" y="324" type="curve" smooth="yes"/>
      <point x="574" y="584"/>
      <point x="476" y="663"/>
      <point x="296" y="663" type="curve"/>
      <point x="122" y="663"/>
      <point x="34" y="555"/>
      <point x="34" y="334" type="curve" smooth="yes"/>
      <point x="34" y="75"/>
      <point x="136" y="-12"/>
      <point x="305" y="-12" type="curve"/>
    </contour>
    <contour>
      <point x="132" y="333" type="curve" smooth="yes"/>
      <point x="132" y="502"/>
      <point x="195" y="578"/>
      <point x="299" y="578" type="curve"/>
      <point x="415" y="578"/>
      <point x="474" y="527"/>
      <point x="474" y="324" type="curve" smooth="yes"/>
      <point x="474" y="150"/>
      <point x="414" y="74"/>
      <point x="305" y="74" type="curve"/>
      <point x="202" y="74"/>
      <point x="132" y="132"/>
    </contour>
    <contour>
      <point x="408" y="567" type="line"/>
      <point x="130" y="137" type="line"/>
      <point x="189" y="74" type="line"/>
      <point x="470" y="496" type="line"/>
    </contour>
  </outline>
</glyph>
<glyph name="one" format="1">
  <advance width="371"/>
  <unicode hex="0031"/>
  <outline>
    <contour>
      <point x="238" y="622" type="line"/>
      <point x="237" y="641"/>
      <point x="226" y="649"/>
      <point x="208" y="649" type="curve"/>
      <point x="60" y="649" type="line"/>
      <point x="58" y="643"/>
      <point x="57" y="637"/>
      <point x="57" y="624" type="curve" smooth="yes"/>
      <point x="57" y="611"/>
      <point x="57" y="610"/>
      <point x="60" y="604" type="curve" smooth="yes"/>
      <point x="62" y="600"/>
      <point x="104" y="582"/>
      <point x="120" y="576" type="curve" smooth="yes"/>
      <point x="127" y="573"/>
      <point x="131" y="566"/>
      <point x="131" y="559" type="curve"/>
      <point x="131" y="92" type="line"/>
      <point x="131" y="81"/>
      <point x="125" y="77"/>
      <point x="118" y="74" type="curve" smooth="yes"/>
      <point x="104" y="67"/>
      <point x="63" y="53"/>
      <point x="61" y="49" type="curve" smooth="yes"/>
      <point x="58" y="43"/>
      <point x="58" y="38"/>
      <point x="58" y="25" type="curve" smooth="yes"/>
      <point x="58" y="12"/>
      <point x="59" y="6"/>
      <point x="61" y="0" type="curve"/>
      <point x="311" y="0" type="line"/>
      <point x="313" y="6"/>
      <point x="314" y="12"/>
      <point x="314" y="25" type="curve" smooth="yes"/>
      <point x="314" y="38"/>
      <point x="314" y="43"/>
      <point x="311" y="49" type="curve" smooth="yes"/>
      <point x="309" y="53"/>
      <point x="261" y="68"/>
      <point x="250" y="74" type="curve"/>
      <point x="241" y="77"/>
      <point x="238" y="84"/>
      <point x="238" y="95" type="curve"/>
    </contour>
  </outline>
</glyph>
<glyph name="two" format="1">
  <advance width="538"/>
  <unicode hex="0032"/>
  <outline>
    <contour>
      <point x="46" y="119" type="curve"/>
      <point x="56" y="0" type="line"/>
      <point x="451" y="0" type="line"/>
      <point x="488" y="184" type="line"/>
      <point x="433" y="184" type="line"/>
      <point x="433" y="125"/>
      <point x="385" y="92"/>
      <point x="339" y="92" type="curve"/>
      <point x="113" y="90" type="line"/>
      <point x="143" y="59" type="line"/>
      <point x="143" y="140"/>
      <point x="218" y="186"/>
      <point x="299" y="250" type="curve" smooth="yes"/>
      <point x="387" y="320"/>
      <point x="462" y="374"/>
      <point x="462" y="476" type="curve"/>
      <point x="462" y="608"/>
      <point x="376" y="659"/>
      <point x="261" y="659" type="curve"/>
      <point x="153" y="659"/>
      <point x="58" y="575"/>
      <point x="58" y="570" type="curve"/>
      <point x="58" y="460" type="line"/>
      <point x="107" y="460" type="line"/>
      <point x="107" y="505"/>
      <point x="167" y="569"/>
      <point x="257" y="569" type="curve"/>
      <point x="331" y="569"/>
      <point x="361" y="538"/>
      <point x="361" y="478" type="curve"/>
      <point x="361" y="418"/>
      <point x="295" y="370"/>
      <point x="220" y="311" type="curve" smooth="yes"/>
      <point x="129" y="239"/>
      <point x="46" y="171"/>
    </contour>
  </outline>
</glyph>
<glyph name="three" format="1">
  <advance width="561"/>
  <unicode hex="0033"/>
  <outline>
    <contour>
      <point x="274" y="-9" type="curve"/>
      <point x="430" y="-9"/>
      <point x="507" y="112"/>
      <point x="507" y="214" type="curve"/>
      <point x="507" y="307"/>
      <point x="435" y="403"/>
      <point x="330" y="403" type="curve"/>
      <point x="263" y="403"/>
      <point x="220" y="378"/>
      <point x="220" y="365" type="curve"/>
      <point x="255" y="359" type="line"/>
      <point x="474" y="551" type="line"/>
      <point x="432" y="648" type="line"/>
      <point x="80" y="648" type="line" smooth="yes"/>
      <point x="74" y="648"/>
      <point x="64" y="493"/>
      <point x="66" y="491" type="curve" smooth="yes"/>
      <point x="71" y="486"/>
      <point x="78" y="488"/>
      <point x="91" y="488" type="curve" smooth="yes"/>
      <point x="104" y="488"/>
      <point x="109" y="488"/>
      <point x="115" y="491" type="curve" smooth="yes"/>
      <point x="119" y="493"/>
      <point x="137" y="541"/>
      <point x="143" y="552" type="curve"/>
      <point x="146" y="560"/>
      <point x="152" y="564"/>
      <point x="159" y="564" type="curve"/>
      <point x="332" y="564" type="line"/>
      <point x="339" y="561"/>
      <point x="344" y="557"/>
      <point x="346" y="550" type="curve"/>
      <point x="137" y="368" type="line"/>
      <point x="181" y="281" type="line"/>
      <point x="205" y="305"/>
      <point x="242" y="326"/>
      <point x="302" y="326" type="curve"/>
      <point x="369" y="326"/>
      <point x="405" y="274"/>
      <point x="405" y="213" type="curve"/>
      <point x="405" y="160"/>
      <point x="353" y="81"/>
      <point x="261" y="81" type="curve"/>
      <point x="169" y="81"/>
      <point x="104" y="148"/>
      <point x="104" y="205" type="curve"/>
      <point x="59" y="150" type="line"/>
      <point x="59" y="80"/>
      <point x="138" y="-9"/>
    </contour>
  </outline>
</glyph>
<glyph name="four" format="1">
  <advance width="590"/>
  <unicode hex="0034"/>
  <outline>
    <contour>
      <point x="349" y="576" type="line"/>
      <point x="343" y="92" type="line" smooth="yes"/>
      <point x="343" y="81"/>
      <point x="337" y="77"/>
      <point x="330" y="74" type="curve" smooth="yes"/>
      <point x="316" y="67"/>
      <point x="275" y="53"/>
      <point x="273" y="49" type="curve" smooth="yes"/>
      <point x="270" y="43"/>
      <point x="270" y="38"/>
      <point x="270" y="25" type="curve" smooth="yes"/>
      <point x="270" y="12"/>
      <point x="271" y="6"/>
      <point x="273" y="0" type="curve"/>
      <point x="512" y="0" type="line"/>
      <point x="514" y="6"/>
      <point x="515" y="12"/>
      <point x="515" y="25" type="curve" smooth="yes"/>
      <point x="515" y="38"/>
      <point x="515" y="43"/>
      <point x="512" y="49" type="curve" smooth="yes"/>
      <point x="510" y="53"/>
      <point x="465" y="68"/>
      <point x="454" y="74" type="curve"/>
      <point x="445" y="77"/>
      <point x="442" y="84"/>
      <point x="442" y="95" type="curve"/>
      <point x="448" y="660" type="line"/>
      <point x="360" y="660" type="line"/>
      <point x="27" y="282" type="line"/>
      <point x="54" y="178" type="line"/>
      <point x="538" y="178" type="line"/>
      <point x="560" y="308" type="line"/>
      <point x="505" y="308" type="line"/>
      <point x="496" y="255"/>
      <point x="470" y="263"/>
      <point x="424" y="263" type="curve"/>
      <point x="124" y="263" type="line"/>
      <point x="127" y="250" type="line"/>
      <point x="380" y="560" type="line"/>
    </contour>
  </outline>
</glyph>
<glyph name="five" format="1">
  <advance width="550"/>
  <unicode hex="0035"/>
  <outline>
    <contour>
      <point x="128" y="303" type="line"/>
      <point x="162" y="337"/>
      <point x="206" y="362"/>
      <point x="266" y="364" type="curve"/>
      <point x="367" y="362"/>
      <point x="406" y="288"/>
      <point x="406" y="222" type="curve"/>
      <point x="406" y="162"/>
      <point x="344" y="85"/>
      <point x="264" y="92" type="curve"/>
      <point x="174" y="92"/>
      <point x="114" y="145"/>
      <point x="114" y="190" type="curve"/>
      <point x="65" y="190" type="line"/>
      <point x="65" y="80" type="line"/>
      <point x="65" y="69"/>
      <point x="144" y="-12"/>
      <point x="270" y="-12" type="curve"/>
      <point x="394" y="-12"/>
      <point x="510" y="92"/>
      <point x="510" y="230" type="curve"/>
      <point x="510" y="336"/>
      <point x="434" y="452"/>
      <point x="299" y="452" type="curve" smooth="yes"/>
      <point x="233" y="452"/>
      <point x="176" y="436"/>
      <point x="154" y="414" type="curve"/>
      <point x="154" y="488"/>
      <point x="152" y="509"/>
      <point x="152" y="590" type="curve"/>
      <point x="122" y="557" type="line"/>
      <point x="348" y="557" type="line"/>
      <point x="394" y="557"/>
      <point x="437" y="537"/>
      <point x="437" y="509" type="curve"/>
      <point x="492" y="509" type="line"/>
      <point x="460" y="649" type="line"/>
      <point x="65" y="649" type="line"/>
      <point x="65" y="490"/>
      <point x="64" y="410"/>
      <point x="64" y="352" type="curve"/>
    </contour>
  </outline>
</glyph>
<glyph name="six" format="1">
  <advance width="659"/>
  <unicode hex="0036"/>
  <outline>
    <contour>
      <point x="207" y="251" type="curve" smooth="yes"/>
      <point x="207" y="337"/>
      <point x="277" y="404"/>
      <point x="361" y="404" type="curve"/>
      <point x="440" y="404"/>
      <point x="508" y="345"/>
      <point x="508" y="255" type="curve"/>
      <point x="507" y="159"/>
      <point x="457" y="78"/>
      <point x="357" y="78" type="curve"/>
      <point x="255" y="78"/>
      <point x="207" y="167"/>
    </contour>
    <contour>
      <point x="452" y="615" type="curve"/>
      <point x="451" y="634"/>
      <point x="413" y="684"/>
      <point x="395" y="684" type="curve"/>
      <point x="238" y="684"/>
      <point x="106" y="477"/>
      <point x="106" y="276" type="curve"/>
      <point x="106" y="142"/>
      <point x="181" y="-15"/>
      <point x="362" y="-15" type="curve"/>
      <point x="495" y="-15"/>
      <point x="604" y="88"/>
      <point x="604" y="267" type="curve"/>
      <point x="604" y="399"/>
      <point x="497" y="485"/>
      <point x="375" y="485" type="curve"/>
      <point x="270" y="485"/>
      <point x="179" y="393"/>
      <point x="179" y="349" type="curve"/>
      <point x="194" y="355" type="line"/>
      <point x="194" y="428"/>
      <point x="297" y="615"/>
    </contour>
  </outline>
</glyph>
<glyph name="seven" format="1">
  <advance width="491"/>
  <unicode hex="0037"/>
  <outline>
    <contour>
      <point x="283" y="94" type="curve"/>
      <point x="461" y="573" type="line"/>
      <point x="466" y="585"/>
      <point x="469" y="604"/>
      <point x="469" y="618" type="curve"/>
      <point x="469" y="630"/>
      <point x="459" y="649"/>
      <point x="448" y="649" type="curve"/>
      <point x="103" y="649" type="line"/>
      <point x="55" y="659" type="line"/>
      <point x="47" y="656"/>
      <point x="44" y="651"/>
      <point x="42" y="643" type="curve"/>
      <point x="25" y="496" type="line"/>
      <point x="31" y="494"/>
      <point x="36" y="493"/>
      <point x="49" y="493" type="curve" smooth="yes"/>
      <point x="61" y="493"/>
      <point x="66" y="493"/>
      <point x="71" y="496" type="curve" smooth="yes"/>
      <point x="75" y="498"/>
      <point x="102" y="537"/>
      <point x="109" y="549" type="curve" smooth="yes"/>
      <point x="115" y="560"/>
      <point x="124" y="564"/>
      <point x="134" y="562" type="curve"/>
      <point x="381" y="562" type="line"/>
      <point x="369" y="576" type="line"/>
      <point x="180" y="91" type="line"/>
      <point x="177" y="85"/>
      <point x="171" y="79"/>
      <point x="164" y="73" type="curve"/>
      <point x="150" y="66"/>
      <point x="108" y="52"/>
      <point x="106" y="48" type="curve" smooth="yes"/>
      <point x="103" y="42"/>
      <point x="103" y="37"/>
      <point x="103" y="24" type="curve" smooth="yes"/>
      <point x="103" y="11"/>
      <point x="104" y="5"/>
      <point x="106" y="-1" type="curve"/>
      <point x="338" y="-1" type="line"/>
      <point x="340" y="5"/>
      <point x="341" y="11"/>
      <point x="341" y="24" type="curve" smooth="yes"/>
      <point x="341" y="37"/>
      <point x="341" y="42"/>
      <point x="338" y="48" type="curve" smooth="yes"/>
      <point x="336" y="52"/>
      <point x="306" y="67"/>
      <point x="295" y="73" type="curve"/>
      <point x="286" y="76"/>
      <point x="283" y="83"/>
    </contour>
  </outline>
</glyph>
<glyph name="eight" format="1">
  <advance width="550"/>
  <unicode hex="0038"/>
  <outline>
    <contour>
      <point x="276" y="-13" type="curve" smooth="yes"/>
      <point x="422" y="-13"/>
      <point x="506" y="87"/>
      <point x="506" y="201" type="curve" smooth="yes"/>
      <point x="506" y="294"/>
      <point x="432" y="377"/>
      <point x="365" y="377" type="curve"/>
      <point x="366" y="360" type="line"/>
      <point x="433" y="360"/>
      <point x="481" y="412"/>
      <point x="481" y="503" type="curve"/>
      <point x="481" y="582"/>
      <point x="406" y="666"/>
      <point x="282" y="666" type="curve"/>
      <point x="147" y="666"/>
      <point x="80" y="584"/>
      <point x="80" y="503" type="curve"/>
      <point x="80" y="417"/>
      <point x="127" y="361"/>
      <point x="194" y="361" type="curve"/>
      <point x="195" y="381" type="line"/>
      <point x="127" y="381"/>
      <point x="54" y="296"/>
      <point x="54" y="201" type="curve" smooth="yes"/>
      <point x="54" y="87"/>
      <point x="137" y="-13"/>
    </contour>
    <contour>
      <point x="210" y="403"/>
      <point x="175" y="448"/>
      <point x="175" y="503" type="curve" smooth="yes"/>
      <point x="175" y="560"/>
      <point x="211" y="595"/>
      <point x="281" y="595" type="curve"/>
      <point x="347" y="595"/>
      <point x="388" y="562"/>
      <point x="388" y="503" type="curve" smooth="yes"/>
      <point x="388" y="449"/>
      <point x="346" y="403"/>
      <point x="279" y="403" type="curve" smooth="yes"/>
    </contour>
    <contour>
      <point x="277" y="328" type="curve" smooth="yes"/>
      <point x="353" y="328"/>
      <point x="404" y="270"/>
      <point x="404" y="201" type="curve" smooth="yes"/>
      <point x="404" y="129"/>
      <point x="356" y="73"/>
      <point x="276" y="73" type="curve" smooth="yes"/>
      <point x="201" y="73"/>
      <point x="150" y="130"/>
      <point x="150" y="201" type="curve" smooth="yes"/>
      <point x="150" y="268"/>
      <point x="199" y="328"/>
    </contour>
  </outline>
</glyph>
<glyph name="nine" format="1">
  <advance width="596"/>
  <unicode hex="0039"/>
  <outline>
    <contour>
      <point x="436" y="418" type="curve" smooth="yes"/>
      <point x="436" y="336"/>
      <point x="373" y="276"/>
      <point x="293" y="276" type="curve"/>
      <point x="212" y="276"/>
      <point x="152" y="332"/>
      <point x="152" y="414" type="curve"/>
      <point x="153" y="506"/>
      <point x="199" y="580"/>
      <point x="295" y="580" type="curve"/>
      <point x="393" y="580"/>
      <point x="436" y="498"/>
    </contour>
    <contour>
      <point x="200" y="54" type="curve"/>
      <point x="201" y="35"/>
      <point x="239" y="-15"/>
      <point x="257" y="-15" type="curve"/>
      <point x="414" y="-15"/>
      <point x="546" y="198"/>
      <point x="546" y="399" type="curve"/>
      <point x="546" y="533"/>
      <point x="471" y="663"/>
      <point x="290" y="663" type="curve"/>
      <point x="157" y="663"/>
      <point x="48" y="581"/>
      <point x="48" y="414" type="curve"/>
      <point x="48" y="284"/>
      <point x="155" y="179"/>
      <point x="277" y="179" type="curve"/>
      <point x="382" y="179"/>
      <point x="462" y="265"/>
      <point x="462" y="309" type="curve"/>
      <point x="447" y="303" type="line"/>
      <point x="447" y="230"/>
      <point x="355" y="54"/>
    </contour>
  </outline>
</glyph>
<glyph name="colon" format="1">
  <advance width="364"/>
  <unicode hex="003A"/>
  <outline>
    <contour>
      <point x="185" y="104" type="curve"/>
      <point x="242" y="104"/>
      <point x="262" y="121"/>
      <point x="262" y="183" type="curve" smooth="yes"/>
      <point x="262" y="244"/>
      <point x="242" y="260"/>
      <point x="183" y="260" type="curve" smooth="yes"/>
      <point x="126" y="260"/>
      <point x="105" y="244"/>
      <point x="105" y="183" type="curve" smooth="yes"/>
      <point x="105" y="121"/>
      <point x="126" y="104"/>
    </contour>
    <contour>
      <point x="185" y="374" type="curve"/>
      <point x="242" y="374"/>
      <point x="262" y="391"/>
      <point x="262" y="453" type="curve" smooth="yes"/>
      <point x="262" y="514"/>
      <point x="242" y="530"/>
      <point x="183" y="530" type="curve" smooth="yes"/>
      <point x="126" y="530"/>
      <point x="105" y="514"/>
      <point x="105" y="453" type="curve" smooth="yes"/>
      <point x="105" y="391"/>
      <point x="126" y="374"/>
    </contour>
  </outline>
</glyph>
<glyph name="question" format="1">
  <advance width="518"/>
  <unicode hex="003F"/>
  <outline>
    <contour>
      <point x="307" y="199" type="curve"/>
      <point x="307" y="226"/>
      <point x="307" y="237"/>
      <point x="307" y="260" type="curve" smooth="yes"/>
      <point x="307" y="347"/>
      <point x="485" y="404"/>
      <point x="485" y="546" type="curve"/>
      <point x="485" y="684"/>
      <point x="410" y="758"/>
      <point x="260" y="758" type="curve"/>
      <point x="124" y="758"/>
      <point x="46" y="677"/>
      <point x="46" y="666" type="curve"/>
      <point x="69" y="538" type="line"/>
      <point x="156" y="538" type="line"/>
      <point x="156" y="587"/>
      <point x="170" y="659"/>
      <point x="252" y="659" type="curve"/>
      <point x="324" y="659"/>
      <point x="348" y="612"/>
      <point x="348" y="545" type="curve"/>
      <point x="348" y="459"/>
      <point x="203" y="412"/>
      <point x="203" y="275" type="curve" smooth="yes"/>
      <point x="203" y="220"/>
      <point x="203" y="251"/>
      <point x="203" y="198" type="curve"/>
      <point x="203" y="191"/>
      <point x="208" y="188"/>
      <point x="216" y="188" type="curve"/>
      <point x="293" y="188" type="line"/>
      <point x="303" y="188"/>
      <point x="307" y="192"/>
    </contour>
    <contour>
      <point x="255" y="-18" type="curve"/>
      <point x="312" y="-18"/>
      <point x="332" y="-1"/>
      <point x="332" y="61" type="curve" smooth="yes"/>
      <point x="332" y="122"/>
      <point x="312" y="138"/>
      <point x="253" y="138" type="curve" smooth="yes"/>
      <point x="196" y="138"/>
      <point x="175" y="122"/>
      <point x="175" y="61" type="curve" smooth="yes"/>
      <point x="175" y="-1"/>
      <point x="196" y="-18"/>
    </contour>
  </outline>
</glyph>
<glyph name="A" format="1">
  <advance width="722"/>
  <unicode hex="0041"/>
  <outline>
    <contour>
      <point x="38" y="0" type="line"/>
      <point x="325" y="750" type="line"/>
      <point x="398" y="750" type="line"/>
      <point x="111" y="0" type="line"/>
    </contour>
    <contour>
      <point x="736" y="0" type="line"/>
      <point x="662" y="0" type="line"/>
      <point x="325" y="750" type="line"/>
      <point x="399" y="750" type="line"/>
    </contour>
    <contour>
      <point x="199" y="302" type="line"/>
      <point x="566" y="302" type="line"/>
      <point x="575" y="241" type="line"/>
      <point x="193" y="241" type="line"/>
    </contour>
  </outline>
</glyph>
<glyph name="B" format="1">
  <advance width="615"/>
  <unicode hex="0042"/>
  <outline>
    <contour>
      <point x="292" y="411" type="curve" smooth="yes"/>
      <point x="266" y="411"/>
      <point x="245" y="412"/>
      <point x="201" y="415" type="curve"/>
      <point x="231" y="383" type="line"/>
      <point x="229" y="648" type="line"/>
      <point x="200" y="612" type="line"/>
      <point x="227" y="624"/>
      <point x="279" y="631"/>
      <point x="306" y="631" type="curve" smooth="yes"/>
      <point x="386" y="631"/>
      <point x="431" y="589"/>
      <point x="431" y="523" type="curve" smooth="yes"/>
      <point x="431" y="465"/>
      <point x="375" y="411"/>
    </contour>
    <contour>
      <point x="288" y="82" type="curve"/>
      <point x="249" y="82"/>
      <point x="233" y="85"/>
      <point x="233" y="96" type="curve"/>
      <point x="231" y="358" type="line"/>
      <point x="207" y="329" type="line"/>
      <point x="228" y="335"/>
      <point x="271" y="334"/>
      <point x="299" y="334" type="curve"/>
      <point x="376" y="334"/>
      <point x="450" y="297"/>
      <point x="450" y="215" type="curve"/>
      <point x="450" y="131"/>
      <point x="391" y="82"/>
    </contour>
    <contour>
      <point x="328" y="0" type="line"/>
      <point x="462" y="0"/>
      <point x="553" y="97"/>
      <point x="553" y="219" type="curve"/>
      <point x="553" y="328"/>
      <point x="460" y="386"/>
      <point x="359" y="386" type="curve"/>
      <point x="360" y="367" type="line"/>
      <point x="446" y="367"/>
      <point x="530" y="460"/>
      <point x="530" y="526" type="curve" smooth="yes"/>
      <point x="530" y="645"/>
      <point x="459" y="708"/>
      <point x="321" y="708" type="curve"/>
      <point x="237" y="708"/>
      <point x="72" y="704"/>
      <point x="57" y="700" type="curve"/>
      <point x="55" y="694"/>
      <point x="54" y="688"/>
      <point x="54" y="675" type="curve" smooth="yes"/>
      <point x="54" y="662"/>
      <point x="54" y="657"/>
      <point x="57" y="651" type="curve" smooth="yes"/>
      <point x="59" y="647"/>
      <point x="101" y="632"/>
      <point x="116" y="623" type="curve"/>
      <point x="123" y="620"/>
      <point x="127" y="614"/>
      <point x="127" y="607" type="curve"/>
      <point x="127" y="92" type="line" smooth="yes"/>
      <point x="127" y="81"/>
      <point x="121" y="77"/>
      <point x="114" y="74" type="curve" smooth="yes"/>
      <point x="100" y="67"/>
      <point x="59" y="53"/>
      <point x="57" y="49" type="curve" smooth="yes"/>
      <point x="54" y="43"/>
      <point x="54" y="38"/>
      <point x="54" y="25" type="curve" smooth="yes"/>
      <point x="54" y="12"/>
      <point x="55" y="6"/>
      <point x="57" y="0" type="curve"/>
    </contour>
  </outline>
</glyph>
<glyph name="C" format="1">
  <advance width="747"/>
  <unicode hex="0043"/>
  <outline>
    <contour>
      <point x="683" y="703" type="line"/>
      <point x="683" y="714"/>
      <point x="618" y="760"/>
      <point x="442" y="760" type="curve"/>
      <point x="248" y="760"/>
      <point x="45" y="653"/>
      <point x="45" y="378" type="curve"/>
      <point x="45" y="84"/>
      <point x="282" y="-12"/>
      <point x="447" y="-12" type="curve"/>
      <point x="613" y="-12"/>
      <point x="693" y="37"/>
      <point x="693" y="43" type="curve"/>
      <point x="693" y="74" type="line"/>
      <point x="693" y="57"/>
      <point x="592" y="8"/>
      <point x="449" y="8" type="curve"/>
      <point x="307" y="8"/>
      <point x="67" y="97"/>
      <point x="67" y="378" type="curve"/>
      <point x="67" y="641"/>
      <point x="274" y="742"/>
      <point x="436" y="742" type="curve"/>
      <point x="589" y="742"/>
      <point x="683" y="694"/>
      <point x="683" y="678" type="curve"/>
    </contour>
  </outline>
</glyph>
<glyph name="D" format="1">
  <advance width="769"/>
  <unicode hex="0044"/>
  <outline>
    <contour>
      <point x="363" y="-10" type="curve" smooth="yes"/>
      <point x="530" y="-10"/>
      <point x="732" y="112"/>
      <point x="732" y="362" type="curve"/>
      <point x="732" y="583"/>
      <point x="567" y="712"/>
      <point x="363" y="712" type="curve"/>
      <point x="259" y="712"/>
      <point x="86" y="700"/>
      <point x="48" y="700" type="curve"/>
      <point x="46" y="694"/>
      <point x="45" y="688"/>
      <point x="45" y="675" type="curve" smooth="yes"/>
      <point x="45" y="662"/>
      <point x="45" y="657"/>
      <point x="48" y="651" type="curve" smooth="yes"/>
      <point x="50" y="647"/>
      <point x="92" y="632"/>
      <point x="107" y="623" type="curve"/>
      <point x="114" y="620"/>
      <point x="118" y="614"/>
      <point x="118" y="607" type="curve"/>
      <point x="118" y="92" type="line" smooth="yes"/>
      <point x="118" y="81"/>
      <point x="112" y="77"/>
      <point x="105" y="74" type="curve" smooth="yes"/>
      <point x="91" y="67"/>
      <point x="50" y="53"/>
      <point x="48" y="49" type="curve" smooth="yes"/>
      <point x="45" y="43"/>
      <point x="45" y="38"/>
      <point x="45" y="25" type="curve" smooth="yes"/>
      <point x="45" y="12"/>
      <point x="46" y="6"/>
      <point x="48" y="0" type="curve"/>
      <point x="240" y="0"/>
      <point x="289" y="-10"/>
    </contour>
    <contour>
      <point x="237" y="79" type="curve"/>
      <point x="228" y="82"/>
      <point x="225" y="89"/>
      <point x="225" y="100" type="curve" smooth="yes"/>
      <point x="225" y="608" type="line"/>
      <point x="225" y="620"/>
      <point x="276" y="626"/>
      <point x="363" y="626" type="curve"/>
      <point x="521" y="626"/>
      <point x="614" y="525"/>
      <point x="614" y="368" type="curve"/>
      <point x="614" y="164"/>
      <point x="478" y="73"/>
      <point x="350" y="73" type="curve" smooth="yes"/>
      <point x="302" y="73"/>
      <point x="250" y="72"/>
    </contour>
  </outline>
</glyph>
<glyph name="E" format="1">
  <advance width="525"/>
  <unicode hex="0045"/>
  <outline>
    <contour>
      <point x="192" y="594" type="line"/>
      <point x="192" y="601"/>
      <point x="198" y="607"/>
      <point x="206" y="610" type="curve"/>
      <point x="390" y="610" type="line"/>
      <point x="397" y="610"/>
      <point x="403" y="606"/>
      <point x="406" y="598" type="curve"/>
      <point x="412" y="587"/>
      <point x="430" y="539"/>
      <point x="434" y="537" type="curve" smooth="yes"/>
      <point x="440" y="534"/>
      <point x="445" y="534"/>
      <point x="458" y="534" type="curve" smooth="yes"/>
      <point x="471" y="534"/>
      <point x="477" y="534"/>
      <point x="483" y="537" type="curve" smooth="yes"/>
      <point x="486" y="538"/>
      <point x="480" y="700"/>
      <point x="475" y="700" type="curve"/>
      <point x="195" y="700" type="line"/>
      <point x="17" y="700" type="line"/>
      <point x="15" y="694"/>
      <point x="14" y="688"/>
      <point x="14" y="675" type="curve" smooth="yes"/>
      <point x="14" y="662"/>
      <point x="14" y="657"/>
      <point x="17" y="651" type="curve" smooth="yes"/>
      <point x="19" y="647"/>
      <point x="61" y="632"/>
      <point x="76" y="623" type="curve"/>
      <point x="83" y="620"/>
      <point x="87" y="614"/>
      <point x="87" y="607" type="curve"/>
      <point x="87" y="92" type="line" smooth="yes"/>
      <point x="87" y="81"/>
      <point x="81" y="77"/>
      <point x="74" y="74" type="curve" smooth="yes"/>
      <point x="60" y="67"/>
      <point x="19" y="53"/>
      <point x="17" y="49" type="curve" smooth="yes"/>
      <point x="14" y="43"/>
      <point x="14" y="38"/>
      <point x="14" y="25" type="curve" smooth="yes"/>
      <point x="14" y="12"/>
      <point x="15" y="6"/>
      <point x="17" y="0" type="curve"/>
      <point x="126" y="0"/>
      <point x="476" y="0"/>
      <point x="479" y="0" type="curve" smooth="yes"/>
      <point x="485" y="0"/>
      <point x="495" y="155"/>
      <point x="493" y="157" type="curve" smooth="yes"/>
      <point x="488" y="162"/>
      <point x="481" y="160"/>
      <point x="468" y="160" type="curve" smooth="yes"/>
      <point x="455" y="160"/>
      <point x="450" y="160"/>
      <point x="444" y="157" type="curve" smooth="yes"/>
      <point x="440" y="155"/>
      <point x="422" y="107"/>
      <point x="416" y="96" type="curve"/>
      <point x="413" y="88"/>
      <point x="407" y="84"/>
      <point x="400" y="84" type="curve"/>
      <point x="206" y="84" type="line"/>
      <point x="198" y="87"/>
      <point x="192" y="93"/>
      <point x="192" y="100" type="curve"/>
    </contour>
    <contour>
      <point x="417" y="266" type="curve" smooth="yes"/>
      <point x="427" y="266"/>
      <point x="431" y="267"/>
      <point x="436" y="268" type="curve"/>
      <point x="436" y="452" type="line"/>
      <point x="431" y="453"/>
      <point x="427" y="454"/>
      <point x="417" y="454" type="curve" smooth="yes"/>
      <point x="407" y="454"/>
      <point x="403" y="454"/>
      <point x="398" y="452" type="curve" smooth="yes"/>
      <point x="395" y="450"/>
      <point x="382" y="421"/>
      <point x="377" y="413" type="curve"/>
      <point x="376" y="410"/>
      <point x="374" y="407"/>
      <point x="372" y="406" type="curve"/>
      <point x="131" y="406" type="line"/>
      <point x="131" y="319" type="line"/>
      <point x="373" y="319" type="line"/>
      <point x="375" y="318"/>
      <point x="376" y="316"/>
      <point x="377" y="314" type="curve"/>
      <point x="384" y="302"/>
      <point x="395" y="270"/>
      <point x="398" y="268" type="curve" smooth="yes"/>
      <point x="403" y="266"/>
      <point x="407" y="266"/>
    </contour>
  </outline>
</glyph>
<glyph name="F" format="1">
  <advance width="536"/>
  <unicode hex="0046"/>
  <outline>
    <contour>
      <point x="452" y="236" type="curve" smooth="yes"/>
      <point x="462" y="236"/>
      <point x="466" y="237"/>
      <point x="471" y="238" type="curve"/>
      <point x="471" y="422" type="line"/>
      <point x="466" y="423"/>
      <point x="462" y="424"/>
      <point x="452" y="424" type="curve" smooth="yes"/>
      <point x="442" y="424"/>
      <point x="438" y="424"/>
      <point x="433" y="422" type="curve" smooth="yes"/>
      <point x="430" y="420"/>
      <point x="417" y="391"/>
      <point x="412" y="383" type="curve"/>
      <point x="411" y="380"/>
      <point x="409" y="377"/>
      <point x="407" y="376" type="curve"/>
      <point x="166" y="376" type="line"/>
      <point x="166" y="289" type="line"/>
      <point x="408" y="289" type="line"/>
      <point x="410" y="288"/>
      <point x="411" y="286"/>
      <point x="412" y="284" type="curve"/>
      <point x="419" y="272"/>
      <point x="430" y="240"/>
      <point x="433" y="238" type="curve" smooth="yes"/>
      <point x="438" y="236"/>
      <point x="442" y="236"/>
    </contour>
    <contour>
      <point x="224" y="93" type="curve"/>
      <point x="222" y="600" type="line"/>
      <point x="222" y="607"/>
      <point x="228" y="613"/>
      <point x="236" y="616" type="curve"/>
      <point x="430" y="616" type="line"/>
      <point x="437" y="616"/>
      <point x="443" y="612"/>
      <point x="446" y="604" type="curve"/>
      <point x="452" y="593"/>
      <point x="470" y="545"/>
      <point x="474" y="543" type="curve" smooth="yes"/>
      <point x="480" y="540"/>
      <point x="485" y="540"/>
      <point x="498" y="540" type="curve" smooth="yes"/>
      <point x="511" y="540"/>
      <point x="518" y="538"/>
      <point x="523" y="543" type="curve" smooth="yes"/>
      <point x="525" y="545"/>
      <point x="515" y="700"/>
      <point x="509" y="700" type="curve" smooth="yes"/>
      <point x="506" y="700"/>
      <point x="156" y="700"/>
      <point x="47" y="700" type="curve"/>
      <point x="45" y="694"/>
      <point x="44" y="688"/>
      <point x="44" y="675" type="curve" smooth="yes"/>
      <point x="44" y="662"/>
      <point x="44" y="657"/>
      <point x="47" y="651" type="curve" smooth="yes"/>
      <point x="49" y="647"/>
      <point x="90" y="633"/>
      <point x="104" y="626" type="curve" smooth="yes"/>
      <point x="111" y="623"/>
      <point x="117" y="619"/>
      <point x="117" y="608" type="curve"/>
      <point x="117" y="93" type="line"/>
      <point x="117" y="86"/>
      <point x="113" y="80"/>
      <point x="106" y="77" type="curve"/>
      <point x="91" y="68"/>
      <point x="56" y="53"/>
      <point x="54" y="49" type="curve" smooth="yes"/>
      <point x="51" y="43"/>
      <point x="51" y="38"/>
      <point x="51" y="25" type="curve" smooth="yes"/>
      <point x="51" y="12"/>
      <point x="52" y="6"/>
      <point x="54" y="0" type="curve"/>
      <point x="297" y="0" type="line"/>
      <point x="299" y="6"/>
      <point x="300" y="12"/>
      <point x="300" y="25" type="curve" smooth="yes"/>
      <point x="300" y="38"/>
      <point x="300" y="43"/>
      <point x="297" y="49" type="curve" smooth="yes"/>
      <point x="295" y="53"/>
      <point x="247" y="71"/>
      <point x="236" y="77" type="curve"/>
      <point x="228" y="80"/>
      <point x="224" y="86"/>
    </contour>
  </outline>
</glyph>
<glyph name="G" format="1">
  <advance width="720"/>
  <unicode hex="0047"/>
  <outline>
    <contour>
      <point x="559" y="590" type="curve"/>
      <point x="529" y="615"/>
      <point x="496" y="624"/>
      <point x="436" y="624" type="curve" smooth="yes"/>
      <point x="283" y="624"/>
      <point x="160" y="538"/>
      <point x="160" y="334" type="curve"/>
      <point x="160" y="201"/>
      <point x="257" y="78"/>
      <point x="403" y="78" type="curve"/>
      <point x="492" y="78"/>
      <point x="536" y="95"/>
      <point x="562" y="120" type="curve"/>
      <point x="562" y="242" type="line"/>
      <point x="562" y="249"/>
      <point x="558" y="255"/>
      <point x="551" y="258" type="curve"/>
      <point x="537" y="265"/>
      <point x="481" y="282"/>
      <point x="479" y="286" type="curve" smooth="yes"/>
      <point x="476" y="292"/>
      <point x="476" y="297"/>
      <point x="476" y="310" type="curve" smooth="yes"/>
      <point x="476" y="323"/>
      <point x="477" y="329"/>
      <point x="479" y="335" type="curve"/>
      <point x="664" y="335" type="line"/>
      <point x="659" y="60" type="line"/>
      <point x="632" y="30"/>
      <point x="549" y="-18"/>
      <point x="403" y="-18" type="curve"/>
      <point x="195" y="-18"/>
      <point x="51" y="119"/>
      <point x="51" y="340" type="curve"/>
      <point x="51" y="590"/>
      <point x="228" y="720"/>
      <point x="420" y="720" type="curve" smooth="yes"/>
      <point x="511" y="720"/>
      <point x="568" y="707"/>
      <point x="636" y="665" type="curve"/>
      <point x="641" y="665"/>
      <point x="636" y="492"/>
      <point x="633" y="491" type="curve" smooth="yes"/>
      <point x="627" y="488"/>
      <point x="621" y="488"/>
      <point x="608" y="488" type="curve" smooth="yes"/>
      <point x="595" y="488"/>
      <point x="590" y="488"/>
      <point x="584" y="491" type="curve" smooth="yes"/>
      <point x="580" y="493"/>
      <point x="565" y="579"/>
    </contour>
  </outline>
</glyph>
<glyph name="H" format="1">
  <advance width="741"/>
  <unicode hex="0048"/>
  <outline>
    <contour>
      <point x="131" y="450" type="line"/>
      <point x="131" y="347" type="line"/>
      <point x="588" y="347" type="line"/>
      <point x="588" y="450" type="line"/>
    </contour>
    <contour>
      <point x="33" y="700" type="line"/>
      <point x="33" y="651" type="line"/>
      <point x="87" y="629" type="line"/>
      <point x="87" y="0" type="line"/>
      <point x="253" y="0" type="line"/>
      <point x="253" y="42" type="line"/>
      <point x="194" y="75" type="line"/>
      <point x="194" y="700" type="line"/>
    </contour>
    <contour>
      <point x="490" y="700" type="line"/>
      <point x="490" y="651" type="line"/>
      <point x="544" y="629" type="line"/>
      <point x="544" y="0" type="line"/>
      <point x="710" y="0" type="line"/>
      <point x="710" y="42" type="line"/>
      <point x="651" y="75" type="line"/>
      <point x="651" y="700" type="line"/>
    </contour>
  </outline>
</glyph>
<glyph name="I" format="1">
  <advance width="316"/>
  <unicode hex="0049"/>
  <outline>
    <contour>
      <point x="282" y="0" type="line"/>
      <point x="284" y="6"/>
      <point x="285" y="12"/>
      <point x="285" y="25" type="curve" smooth="yes"/>
      <point x="285" y="38"/>
      <point x="285" y="43"/>
      <point x="282" y="49" type="curve" smooth="yes"/>
      <point x="280" y="53"/>
      <point x="235" y="68"/>
      <point x="224" y="74" type="curve"/>
      <point x="215" y="77"/>
      <point x="212" y="84"/>
      <point x="212" y="95" type="curve" smooth="yes"/>
      <point x="212" y="607" type="line"/>
      <point x="212" y="614"/>
      <point x="216" y="620"/>
      <point x="224" y="623" type="curve"/>
      <point x="235" y="629"/>
      <point x="278" y="647"/>
      <point x="280" y="651" type="curve" smooth="yes"/>
      <point x="283" y="657"/>
      <point x="283" y="662"/>
      <point x="283" y="675" type="curve" smooth="yes"/>
      <point x="283" y="688"/>
      <point x="282" y="694"/>
      <point x="280" y="700" type="curve"/>
      <point x="35" y="700" type="line"/>
      <point x="33" y="694"/>
      <point x="32" y="688"/>
      <point x="32" y="675" type="curve" smooth="yes"/>
      <point x="32" y="662"/>
      <point x="32" y="657"/>
      <point x="35" y="651" type="curve" smooth="yes"/>
      <point x="37" y="647"/>
      <point x="79" y="632"/>
      <point x="94" y="623" type="curve"/>
      <point x="101" y="620"/>
      <point x="105" y="614"/>
      <point x="105" y="607" type="curve"/>
      <point x="105" y="92" type="line" smooth="yes"/>
      <point x="105" y="81"/>
      <point x="99" y="77"/>
      <point x="92" y="74" type="curve" smooth="yes"/>
      <point x="78" y="67"/>
      <point x="37" y="53"/>
      <point x="35" y="49" type="curve" smooth="yes"/>
      <point x="32" y="43"/>
      <point x="32" y="38"/>
      <point x="32" y="25" type="curve" smooth="yes"/>
      <point x="32" y="12"/>
      <point x="33" y="6"/>
      <point x="35" y="0" type="curve"/>
    </contour>
  </outline>
</glyph>
<glyph name="J" format="1">
  <advance width="447"/>
  <unicode hex="004A"/>
  <outline>
    <contour>
      <point x="212" y="607" type="curve"/>
      <point x="212" y="477"/>
      <point x="212" y="164"/>
      <point x="212" y="92" type="curve"/>
      <point x="212" y="-29"/>
      <point x="119" y="-84"/>
      <point x="41" y="-84" type="curve"/>
      <point x="41" y="-154" type="line"/>
      <point x="169" y="-154"/>
      <point x="317" y="-71"/>
      <point x="317" y="100" type="curve"/>
      <point x="317" y="176"/>
      <point x="317" y="474"/>
      <point x="317" y="607" type="curve"/>
      <point x="317" y="614"/>
      <point x="321" y="620"/>
      <point x="328" y="623" type="curve"/>
      <point x="343" y="632"/>
      <point x="395" y="647"/>
      <point x="397" y="651" type="curve" smooth="yes"/>
      <point x="400" y="657"/>
      <point x="400" y="662"/>
      <point x="400" y="675" type="curve" smooth="yes"/>
      <point x="400" y="688"/>
      <point x="399" y="694"/>
      <point x="397" y="700" type="curve"/>
      <point x="132" y="700" type="line"/>
      <point x="130" y="694"/>
      <point x="129" y="688"/>
      <point x="129" y="675" type="curve" smooth="yes"/>
      <point x="129" y="662"/>
      <point x="129" y="657"/>
      <point x="132" y="651" type="curve" smooth="yes"/>
      <point x="134" y="647"/>
      <point x="189" y="629"/>
      <point x="200" y="623" type="curve"/>
      <point x="208" y="620"/>
      <point x="212" y="614"/>
    </contour>
  </outline>
</glyph>
<glyph name="K" format="1">
  <advance width="682"/>
  <unicode hex="004B"/>
  <outline>
    <contour>
      <point x="282" y="0" type="line"/>
      <point x="284" y="6"/>
      <point x="285" y="12"/>
      <point x="285" y="25" type="curve" smooth="yes"/>
      <point x="285" y="38"/>
      <point x="285" y="43"/>
      <point x="282" y="49" type="curve" smooth="yes"/>
      <point x="280" y="53"/>
      <point x="235" y="68"/>
      <point x="224" y="74" type="curve"/>
      <point x="215" y="77"/>
      <point x="212" y="84"/>
      <point x="212" y="95" type="curve" smooth="yes"/>
      <point x="212" y="607" type="line"/>
      <point x="212" y="614"/>
      <point x="216" y="620"/>
      <point x="224" y="623" type="curve"/>
      <point x="235" y="629"/>
      <point x="278" y="647"/>
      <point x="280" y="651" type="curve" smooth="yes"/>
      <point x="283" y="657"/>
      <point x="283" y="662"/>
      <point x="283" y="675" type="curve" smooth="yes"/>
      <point x="283" y="688"/>
      <point x="282" y="694"/>
      <point x="280" y="700" type="curve"/>
      <point x="35" y="700" type="line"/>
      <point x="33" y="694"/>
      <point x="32" y="688"/>
      <point x="32" y="675" type="curve" smooth="yes"/>
      <point x="32" y="662"/>
      <point x="32" y="657"/>
      <point x="35" y="651" type="curve" smooth="yes"/>
      <point x="37" y="647"/>
      <point x="79" y="632"/>
      <point x="94" y="623" type="curve"/>
      <point x="101" y="620"/>
      <point x="105" y="614"/>
      <point x="105" y="607" type="curve"/>
      <point x="105" y="92" type="line" smooth="yes"/>
      <point x="105" y="81"/>
      <point x="99" y="77"/>
      <point x="92" y="74" type="curve" smooth="yes"/>
      <point x="78" y="67"/>
      <point x="37" y="53"/>
      <point x="35" y="49" type="curve" smooth="yes"/>
      <point x="32" y="43"/>
      <point x="32" y="38"/>
      <point x="32" y="25" type="curve" smooth="yes"/>
      <point x="32" y="12"/>
      <point x="33" y="6"/>
      <point x="35" y="0" type="curve"/>
    </contour>
    <contour>
      <point x="654" y="0" type="line"/>
      <point x="656" y="6"/>
      <point x="657" y="12"/>
      <point x="657" y="25" type="curve" smooth="yes"/>
      <point x="657" y="38"/>
      <point x="657" y="43"/>
      <point x="654" y="49" type="curve" smooth="yes"/>
      <point x="652" y="53"/>
      <point x="607" y="68"/>
      <point x="596" y="74" type="curve"/>
      <point x="587" y="77"/>
      <point x="582" y="83"/>
      <point x="576" y="92" type="curve"/>
      <point x="368" y="425" type="line"/>
      <point x="296" y="357" type="line"/>
      <point x="496" y="9" type="line"/>
      <point x="499" y="4"/>
      <point x="503" y="1"/>
      <point x="508" y="0" type="curve"/>
    </contour>
    <contour>
      <point x="202" y="233" type="line"/>
      <point x="292" y="328"/>
      <point x="518" y="581"/>
      <point x="530" y="593" type="curve" smooth="yes"/>
      <point x="577" y="640"/>
      <point x="615" y="636"/>
      <point x="618" y="643" type="curve" smooth="yes"/>
      <point x="621" y="649"/>
      <point x="621" y="660"/>
      <point x="621" y="673" type="curve" smooth="yes"/>
      <point x="621" y="686"/>
      <point x="620" y="694"/>
      <point x="618" y="700" type="curve"/>
      <point x="392" y="700" type="line"/>
      <point x="390" y="694"/>
      <point x="389" y="688"/>
      <point x="389" y="675" type="curve" smooth="yes"/>
      <point x="389" y="662"/>
      <point x="389" y="657"/>
      <point x="392" y="651" type="curve" smooth="yes"/>
      <point x="394" y="647"/>
      <point x="412" y="640"/>
      <point x="427" y="631" type="curve"/>
      <point x="434" y="628"/>
      <point x="438" y="623"/>
      <point x="438" y="616" type="curve"/>
      <point x="438" y="610"/>
      <point x="249" y="404"/>
      <point x="179" y="333" type="curve"/>
    </contour>
  </outline>
</glyph>
<glyph name="M" format="1">
  <advance width="971"/>
  <unicode hex="004D"/>
  <outline>
    <contour>
      <point x="826" y="605" type="line"/>
      <point x="826" y="616"/>
      <point x="829" y="622"/>
      <point x="838" y="626" type="curve" smooth="yes"/>
      <point x="849" y="631"/>
      <point x="898" y="647"/>
      <point x="900" y="651" type="curve" smooth="yes"/>
      <point x="903" y="657"/>
      <point x="903" y="662"/>
      <point x="903" y="675" type="curve" smooth="yes"/>
      <point x="903" y="688"/>
      <point x="902" y="694"/>
      <point x="900" y="700" type="curve"/>
      <point x="714" y="700" type="line"/>
      <point x="480" y="132" type="line"/>
      <point x="503" y="133" type="line"/>
      <point x="255" y="700" type="line"/>
      <point x="73" y="700" type="line"/>
      <point x="71" y="694"/>
      <point x="70" y="688"/>
      <point x="70" y="675" type="curve" smooth="yes"/>
      <point x="70" y="662"/>
      <point x="70" y="657"/>
      <point x="73" y="651" type="curve" smooth="yes"/>
      <point x="75" y="647"/>
      <point x="124" y="631"/>
      <point x="135" y="626" type="curve" smooth="yes"/>
      <point x="144" y="622"/>
      <point x="147" y="616"/>
      <point x="147" y="605" type="curve"/>
      <point x="91" y="92" type="line"/>
      <point x="91" y="81"/>
      <point x="85" y="77"/>
      <point x="78" y="74" type="curve"/>
      <point x="64" y="67"/>
      <point x="23" y="53"/>
      <point x="21" y="49" type="curve" smooth="yes"/>
      <point x="18" y="43"/>
      <point x="18" y="38"/>
      <point x="18" y="25" type="curve" smooth="yes"/>
      <point x="18" y="12"/>
      <point x="19" y="6"/>
      <point x="21" y="0" type="curve"/>
      <point x="267" y="0" type="line"/>
      <point x="269" y="6"/>
      <point x="270" y="12"/>
      <point x="270" y="25" type="curve" smooth="yes"/>
      <point x="270" y="38"/>
      <point x="270" y="43"/>
      <point x="267" y="49" type="curve" smooth="yes"/>
      <point x="265" y="53"/>
      <point x="216" y="69"/>
      <point x="205" y="74" type="curve" smooth="yes"/>
      <point x="196" y="78"/>
      <point x="192" y="84"/>
      <point x="193" y="95" type="curve" smooth="yes"/>
      <point x="230" y="542" type="line"/>
      <point x="216" y="540" type="line"/>
      <point x="445" y="0" type="line"/>
      <point x="522" y="0" type="line"/>
      <point x="749" y="539" type="line"/>
      <point x="735" y="541" type="line"/>
      <point x="775" y="95" type="line"/>
      <point x="775" y="84"/>
      <point x="772" y="78"/>
      <point x="763" y="74" type="curve" smooth="yes"/>
      <point x="752" y="69"/>
      <point x="703" y="53"/>
      <point x="701" y="49" type="curve" smooth="yes"/>
      <point x="698" y="43"/>
      <point x="698" y="38"/>
      <point x="698" y="25" type="curve" smooth="yes"/>
      <point x="698" y="12"/>
      <point x="699" y="6"/>
      <point x="701" y="0" type="curve"/>
      <point x="947" y="0" type="line"/>
      <point x="949" y="6"/>
      <point x="950" y="12"/>
      <point x="950" y="25" type="curve" smooth="yes"/>
      <point x="950" y="38"/>
      <point x="950" y="43"/>
      <point x="947" y="49" type="curve" smooth="yes"/>
      <point x="945" y="53"/>
      <point x="904" y="67"/>
      <point x="890" y="74" type="curve"/>
      <point x="883" y="77"/>
      <point x="877" y="81"/>
      <point x="877" y="92" type="curve"/>
    </contour>
  </outline>
</glyph>
<glyph name="N" format="1">
  <advance width="697"/>
  <unicode hex="004E"/>
  <outline>
    <contour>
      <point x="540" y="607" type="line"/>
      <point x="540" y="618"/>
      <point x="534" y="622"/>
      <point x="527" y="625" type="curve"/>
      <point x="513" y="632"/>
      <point x="472" y="646"/>
      <point x="470" y="650" type="curve" smooth="yes"/>
      <point x="467" y="656"/>
      <point x="467" y="661"/>
      <point x="467" y="674" type="curve" smooth="yes"/>
      <point x="467" y="687"/>
      <point x="468" y="693"/>
      <point x="470" y="699" type="curve"/>
      <point x="716" y="699" type="line"/>
      <point x="718" y="693"/>
      <point x="719" y="687"/>
      <point x="719" y="674" type="curve" smooth="yes"/>
      <point x="719" y="661"/>
      <point x="719" y="656"/>
      <point x="716" y="650" type="curve" smooth="yes"/>
      <point x="714" y="646"/>
      <point x="665" y="630"/>
      <point x="654" y="625" type="curve" smooth="yes"/>
      <point x="645" y="621"/>
      <point x="641" y="615"/>
      <point x="642" y="604" type="curve"/>
      <point x="642" y="0" type="line"/>
      <point x="553" y="0" type="line"/>
      <point x="151" y="543" type="line"/>
      <point x="165" y="545" type="line"/>
      <point x="171" y="95" type="line"/>
      <point x="170" y="84"/>
      <point x="174" y="78"/>
      <point x="183" y="74" type="curve" smooth="yes"/>
      <point x="194" y="69"/>
      <point x="243" y="53"/>
      <point x="245" y="49" type="curve" smooth="yes"/>
      <point x="248" y="43"/>
      <point x="248" y="38"/>
      <point x="248" y="25" type="curve" smooth="yes"/>
      <point x="248" y="12"/>
      <point x="247" y="6"/>
      <point x="245" y="0" type="curve"/>
      <point x="-1" y="0" type="line"/>
      <point x="-3" y="6"/>
      <point x="-4" y="12"/>
      <point x="-4" y="25" type="curve" smooth="yes"/>
      <point x="-4" y="38"/>
      <point x="-4" y="43"/>
      <point x="-1" y="49" type="curve" smooth="yes"/>
      <point x="1" y="53"/>
      <point x="42" y="67"/>
      <point x="56" y="74" type="curve"/>
      <point x="63" y="77"/>
      <point x="69" y="81"/>
      <point x="69" y="92" type="curve"/>
      <point x="69" y="605" type="line"/>
      <point x="69" y="616"/>
      <point x="66" y="622"/>
      <point x="57" y="626" type="curve" smooth="yes"/>
      <point x="46" y="631"/>
      <point x="-3" y="647"/>
      <point x="-5" y="651" type="curve" smooth="yes"/>
      <point x="-8" y="657"/>
      <point x="-8" y="662"/>
      <point x="-8" y="675" type="curve" smooth="yes"/>
      <point x="-8" y="688"/>
      <point x="-7" y="694"/>
      <point x="-5" y="700" type="curve"/>
      <point x="175" y="700" type="line"/>
      <point x="574" y="151" type="line"/>
      <point x="546" y="144" type="line"/>
    </contour>
  </outline>
</glyph>
<glyph name="O" format="1">
  <advance width="785"/>
  <unicode hex="004F"/>
  <outline>
    <contour>
      <point x="573" y="-18"/>
      <point x="739" y="99"/>
      <point x="739" y="346" type="curve" smooth="yes"/>
      <point x="739" y="613"/>
      <point x="560" y="713"/>
      <point x="387" y="713" type="curve"/>
      <point x="222" y="713"/>
      <point x="51" y="584"/>
      <point x="51" y="357" type="curve" smooth="yes"/>
      <point x="51" y="91"/>
      <point x="242" y="-18"/>
      <point x="396" y="-18" type="curve"/>
    </contour>
    <contour>
      <point x="160" y="356" type="curve" smooth="yes"/>
      <point x="160" y="529"/>
      <point x="279" y="617"/>
      <point x="389" y="617" type="curve"/>
      <point x="499" y="617"/>
      <point x="632" y="541"/>
      <point x="632" y="346" type="curve" smooth="yes"/>
      <point x="632" y="167"/>
      <point x="512" y="78"/>
      <point x="396" y="78" type="curve"/>
      <point x="300" y="78"/>
      <point x="160" y="161"/>
    </contour>
  </outline>
</glyph>
<glyph name="P" format="1">
  <advance width="575.0"/>
  <unicode hex="0050"/>
  <outline>
    <contour>
      <point x="251" y="241" type="line"/>
      <point x="260" y="232"/>
      <point x="285" y="231"/>
      <point x="305" y="231" type="curve" smooth="yes"/>
      <point x="422" y="231"/>
      <point x="562" y="316"/>
      <point x="562" y="487" type="curve"/>
      <point x="562" y="641"/>
      <point x="445" y="708"/>
      <point x="290" y="708" type="curve"/>
      <point x="206" y="708"/>
      <point x="50" y="704"/>
      <point x="35" y="700" type="curve"/>
      <point x="33" y="694"/>
      <point x="32" y="688"/>
      <point x="32" y="675" type="curve" smooth="yes"/>
      <point x="32" y="662"/>
      <point x="32" y="657"/>
      <point x="35" y="651" type="curve" smooth="yes"/>
      <point x="37" y="647"/>
      <point x="79" y="632"/>
      <point x="94" y="623" type="curve"/>
      <point x="101" y="620"/>
      <point x="105" y="614"/>
      <point x="105" y="607" type="curve"/>
      <point x="105" y="92" type="line" smooth="yes"/>
      <point x="105" y="81"/>
      <point x="99" y="77"/>
      <point x="92" y="74" type="curve" smooth="yes"/>
      <point x="78" y="67"/>
      <point x="47" y="53"/>
      <point x="45" y="49" type="curve" smooth="yes"/>
      <point x="42" y="43"/>
      <point x="42" y="38"/>
      <point x="42" y="25" type="curve" smooth="yes"/>
      <point x="42" y="12"/>
      <point x="43" y="6"/>
      <point x="45" y="0" type="curve"/>
      <point x="284" y="0" type="line"/>
      <point x="286" y="6"/>
      <point x="287" y="12"/>
      <point x="287" y="25" type="curve" smooth="yes"/>
      <point x="287" y="38"/>
      <point x="287" y="43"/>
      <point x="284" y="49" type="curve" smooth="yes"/>
      <point x="282" y="53"/>
      <point x="235" y="68"/>
      <point x="224" y="74" type="curve"/>
      <point x="215" y="77"/>
      <point x="209" y="84"/>
      <point x="209" y="95" type="curve"/>
      <point x="207" y="643" type="line"/>
      <point x="191" y="620" type="line"/>
      <point x="214" y="629"/>
      <point x="274" y="625"/>
      <point x="308" y="625" type="curve" smooth="yes"/>
      <point x="383" y="625"/>
      <point x="465" y="581"/>
      <point x="465" y="480" type="curve"/>
      <point x="465" y="374"/>
      <point x="373" y="310"/>
      <point x="291" y="310" type="curve" smooth="yes"/>
      <point x="279" y="310"/>
      <point x="264" y="309"/>
      <point x="251" y="310" type="curve"/>
    </contour>
  </outline>
</glyph>
<glyph name="Q" format="1">
  <advance width="779"/>
  <unicode hex="0051"/>
  <outline>
    <contour>
      <point x="573" y="-18"/>
      <point x="739" y="99"/>
      <point x="739" y="346" type="curve" smooth="yes"/>
      <point x="739" y="613"/>
      <point x="560" y="713"/>
      <point x="387" y="713" type="curve"/>
      <point x="222" y="713"/>
      <point x="51" y="584"/>
      <point x="51" y="357" type="curve" smooth="yes"/>
      <point x="51" y="91"/>
      <point x="242" y="-18"/>
      <point x="396" y="-18" type="curve"/>
    </contour>
    <contour>
      <point x="160" y="356" type="curve" smooth="yes"/>
      <point x="160" y="529"/>
      <point x="279" y="617"/>
      <point x="389" y="617" type="curve"/>
      <point x="499" y="617"/>
      <point x="632" y="541"/>
      <point x="632" y="346" type="curve" smooth="yes"/>
      <point x="632" y="167"/>
      <point x="512" y="78"/>
      <point x="396" y="78" type="curve"/>
      <point x="300" y="78"/>
      <point x="160" y="161"/>
    </contour>
    <contour>
      <point x="891" y="-70" type="line"/>
      <point x="495" y="8" type="line"/>
      <point x="315" y="7" type="line"/>
      <point x="363" y="-16" type="line"/>
      <point x="748" y="-132" type="line"/>
      <point x="886" y="-116" type="line"/>
      <point x="900" y="-98" type="line"/>
    </contour>
  </outline>
</glyph>
<glyph name="R" format="1">
  <advance width="587"/>
  <unicode hex="0052"/>
  <outline>
    <contour>
      <point x="558" y="0" type="line"/>
      <point x="560" y="6"/>
      <point x="561" y="12"/>
      <point x="561" y="25" type="curve" smooth="yes"/>
      <point x="561" y="38"/>
      <point x="561" y="43"/>
      <point x="558" y="49" type="curve" smooth="yes"/>
      <point x="556" y="53"/>
      <point x="511" y="68"/>
      <point x="500" y="74" type="curve"/>
      <point x="491" y="77"/>
      <point x="486" y="83"/>
      <point x="480" y="92" type="curve"/>
      <point x="350" y="377" type="line"/>
      <point x="265" y="324" type="line"/>
      <point x="400" y="9" type="line"/>
      <point x="403" y="4"/>
      <point x="407" y="1"/>
      <point x="412" y="0" type="curve"/>
    </contour>
    <contour>
      <point x="252" y="370" type="curve" smooth="yes"/>
      <point x="216" y="370"/>
      <point x="189" y="371"/>
      <point x="178" y="374" type="curve"/>
      <point x="191" y="348" type="line"/>
      <point x="189" y="637" type="line"/>
      <point x="173" y="614" type="line"/>
      <point x="196" y="623"/>
      <point x="235" y="622"/>
      <point x="269" y="622" type="curve" smooth="yes"/>
      <point x="327" y="622"/>
      <point x="379" y="571"/>
      <point x="379" y="505" type="curve" smooth="yes"/>
      <point x="379" y="447"/>
      <point x="335" y="370"/>
    </contour>
    <contour>
      <point x="260" y="25" type="curve" smooth="yes"/>
      <point x="260" y="38"/>
      <point x="260" y="43"/>
      <point x="257" y="49" type="curve" smooth="yes"/>
      <point x="255" y="53"/>
      <point x="217" y="68"/>
      <point x="206" y="74" type="curve"/>
      <point x="197" y="77"/>
      <point x="191" y="84"/>
      <point x="191" y="95" type="curve" smooth="yes"/>
      <point x="191" y="309" type="line"/>
      <point x="169" y="298" type="line"/>
      <point x="180" y="287"/>
      <point x="214" y="281"/>
      <point x="266" y="281" type="curve" smooth="yes"/>
      <point x="366" y="281"/>
      <point x="477" y="382"/>
      <point x="477" y="512" type="curve" smooth="yes"/>
      <point x="477" y="631"/>
      <point x="389" y="708"/>
      <point x="251" y="708" type="curve"/>
      <point x="167" y="708"/>
      <point x="32" y="704"/>
      <point x="17" y="700" type="curve"/>
      <point x="15" y="694"/>
      <point x="14" y="688"/>
      <point x="14" y="675" type="curve" smooth="yes"/>
      <point x="14" y="662"/>
      <point x="14" y="657"/>
      <point x="17" y="651" type="curve" smooth="yes"/>
      <point x="19" y="647"/>
      <point x="61" y="632"/>
      <point x="76" y="623" type="curve"/>
      <point x="83" y="620"/>
      <point x="87" y="614"/>
      <point x="87" y="607" type="curve"/>
      <point x="87" y="92" type="line" smooth="yes"/>
      <point x="87" y="81"/>
      <point x="81" y="77"/>
      <point x="74" y="74" type="curve" smooth="yes"/>
      <point x="60" y="67"/>
      <point x="19" y="53"/>
      <point x="17" y="49" type="curve" smooth="yes"/>
      <point x="14" y="43"/>
      <point x="14" y="38"/>
      <point x="14" y="25" type="curve" smooth="yes"/>
      <point x="14" y="12"/>
      <point x="15" y="6"/>
      <point x="17" y="0" type="curve"/>
      <point x="257" y="0" type="line"/>
      <point x="259" y="6"/>
      <point x="260" y="12"/>
    </contour>
  </outline>
</glyph>
<glyph name="S" format="1">
  <advance width="565"/>
  <unicode hex="0053"/>
  <outline>
    <contour>
      <point x="332" y="396" type="curve" smooth="yes"/>
      <point x="289" y="414"/>
      <point x="178" y="438"/>
      <point x="178" y="523" type="curve"/>
      <point x="178" y="581"/>
      <point x="249" y="620"/>
      <point x="307" y="620" type="curve"/>
      <point x="403" y="620"/>
      <point x="425" y="566"/>
      <point x="425" y="529" type="curve"/>
      <point x="474" y="529" type="line"/>
      <point x="474" y="668" type="line"/>
      <point x="474" y="673"/>
      <point x="425" y="710"/>
      <point x="317" y="710" type="curve"/>
      <point x="202" y="710"/>
      <point x="68" y="634"/>
      <point x="68" y="513" type="curve"/>
      <point x="68" y="386"/>
      <point x="179" y="349"/>
      <point x="219" y="330" type="curve" smooth="yes"/>
      <point x="261" y="309"/>
      <point x="396" y="271"/>
      <point x="396" y="190" type="curve"/>
      <point x="396" y="116"/>
      <point x="319" y="87"/>
      <point x="261" y="86" type="curve"/>
      <point x="162" y="86"/>
      <point x="123" y="141"/>
      <point x="123" y="211" type="curve"/>
      <point x="68" y="211" type="line"/>
      <point x="68" y="53" type="line"/>
      <point x="63" y="53"/>
      <point x="139" y="-6"/>
      <point x="270" y="-6" type="curve"/>
      <point x="392" y="-6"/>
      <point x="502" y="74"/>
      <point x="502" y="197" type="curve"/>
      <point x="502" y="337"/>
      <point x="366" y="380"/>
    </contour>
  </outline>
</glyph>
<glyph name="T" format="1">
  <advance width="572.0"/>
  <unicode hex="0054"/>
  <outline>
    <contour>
      <point x="412" y="25" type="curve" smooth="yes"/>
      <point x="412" y="38"/>
      <point x="412" y="43"/>
      <point x="409" y="49" type="curve" smooth="yes"/>
      <point x="407" y="53"/>
      <point x="364" y="71"/>
      <point x="353" y="77" type="curve"/>
      <point x="345" y="80"/>
      <point x="341" y="86"/>
      <point x="341" y="93" type="curve"/>
      <point x="339" y="595" type="line"/>
      <point x="339" y="602"/>
      <point x="345" y="608"/>
      <point x="353" y="611" type="curve"/>
      <point x="485" y="611" type="line"/>
      <point x="490" y="611"/>
      <point x="495" y="607"/>
      <point x="497" y="599" type="curve"/>
      <point x="501" y="587"/>
      <point x="515" y="538"/>
      <point x="518" y="536" type="curve" smooth="yes"/>
      <point x="523" y="533"/>
      <point x="526" y="533"/>
      <point x="536" y="533" type="curve" smooth="yes"/>
      <point x="546" y="533"/>
      <point x="552" y="531"/>
      <point x="555" y="536" type="curve" smooth="yes"/>
      <point x="557" y="538"/>
      <point x="549" y="702"/>
      <point x="545" y="702" type="curve" smooth="yes"/>
      <point x="28" y="702" type="line" smooth="yes"/>
      <point x="23" y="702"/>
      <point x="16" y="538"/>
      <point x="17" y="536" type="curve" smooth="yes"/>
      <point x="21" y="531"/>
      <point x="26" y="533"/>
      <point x="36" y="533" type="curve" smooth="yes"/>
      <point x="46" y="533"/>
      <point x="50" y="533"/>
      <point x="55" y="536" type="curve" smooth="yes"/>
      <point x="58" y="538"/>
      <point x="71" y="587"/>
      <point x="76" y="599" type="curve"/>
      <point x="78" y="607"/>
      <point x="83" y="611"/>
      <point x="88" y="611" type="curve"/>
      <point x="220" y="611" type="line"/>
      <point x="228" y="608"/>
      <point x="234" y="602"/>
      <point x="234" y="595" type="curve"/>
      <point x="232" y="93" type="line"/>
      <point x="232" y="86"/>
      <point x="228" y="80"/>
      <point x="220" y="77" type="curve"/>
      <point x="210" y="71"/>
      <point x="170" y="55"/>
      <point x="165" y="50" type="curve"/>
      <point x="164" y="49"/>
      <point x="164" y="49"/>
      <point x="164" y="49" type="curve" smooth="yes"/>
      <point x="161" y="43"/>
      <point x="161" y="38"/>
      <point x="161" y="25" type="curve" smooth="yes"/>
      <point x="161" y="12"/>
      <point x="162" y="6"/>
      <point x="164" y="0" type="curve"/>
      <point x="409" y="0" type="line"/>
      <point x="411" y="6"/>
      <point x="412" y="12"/>
    </contour>
  </outline>
</glyph>
<glyph name="U" format="1">
  <advance width="732"/>
  <unicode hex="0055"/>
  <outline>
    <contour>
      <point x="505" y="607" type="line"/>
      <point x="505" y="614"/>
      <point x="501" y="620"/>
      <point x="494" y="623" type="curve"/>
      <point x="480" y="630"/>
      <point x="434" y="647"/>
      <point x="432" y="651" type="curve" smooth="yes"/>
      <point x="429" y="657"/>
      <point x="429" y="662"/>
      <point x="429" y="675" type="curve" smooth="yes"/>
      <point x="429" y="688"/>
      <point x="430" y="694"/>
      <point x="432" y="700" type="curve"/>
      <point x="682" y="700" type="line"/>
      <point x="684" y="694"/>
      <point x="685" y="688"/>
      <point x="685" y="675" type="curve" smooth="yes"/>
      <point x="685" y="662"/>
      <point x="685" y="657"/>
      <point x="682" y="651" type="curve" smooth="yes"/>
      <point x="680" y="647"/>
      <point x="635" y="629"/>
      <point x="624" y="623" type="curve"/>
      <point x="616" y="620"/>
      <point x="612" y="614"/>
      <point x="612" y="607" type="curve"/>
      <point x="612" y="352" type="line"/>
      <point x="612" y="123"/>
      <point x="579" y="-9"/>
      <point x="357" y="-9" type="curve" smooth="yes"/>
      <point x="136" y="-9"/>
      <point x="113" y="123"/>
      <point x="113" y="347" type="curve"/>
      <point x="113" y="607" type="line"/>
      <point x="113" y="614"/>
      <point x="109" y="620"/>
      <point x="102" y="623" type="curve"/>
      <point x="87" y="632"/>
      <point x="45" y="647"/>
      <point x="43" y="651" type="curve" smooth="yes"/>
      <point x="40" y="657"/>
      <point x="40" y="662"/>
      <point x="40" y="675" type="curve" smooth="yes"/>
      <point x="40" y="688"/>
      <point x="41" y="694"/>
      <point x="43" y="700" type="curve"/>
      <point x="293" y="700" type="line"/>
      <point x="295" y="694"/>
      <point x="296" y="688"/>
      <point x="296" y="675" type="curve" smooth="yes"/>
      <point x="296" y="662"/>
      <point x="296" y="657"/>
      <point x="293" y="651" type="curve" smooth="yes"/>
      <point x="291" y="647"/>
      <point x="243" y="629"/>
      <point x="232" y="623" type="curve"/>
      <point x="224" y="620"/>
      <point x="220" y="614"/>
      <point x="220" y="607" type="curve"/>
      <point x="220" y="342" type="line"/>
      <point x="220" y="192"/>
      <point x="222" y="89"/>
      <point x="356" y="89" type="curve"/>
      <point x="490" y="89"/>
      <point x="505" y="191"/>
      <point x="505" y="340" type="curve"/>
    </contour>
  </outline>
</glyph>
<glyph name="V" format="1">
  <advance width="737"/>
  <unicode hex="0056"/>
  <outline>
    <contour>
      <point x="186" y="673" type="line"/>
      <point x="185" y="692"/>
      <point x="174" y="700"/>
      <point x="156" y="700" type="curve"/>
      <point x="15" y="700" type="line"/>
      <point x="15" y="644" type="line"/>
      <point x="87" y="620" type="line"/>
      <point x="323" y="0" type="line"/>
      <point x="430" y="0" type="line"/>
      <point x="689" y="629" type="line"/>
      <point x="692" y="636"/>
      <point x="695" y="642"/>
      <point x="695" y="656" type="curve"/>
      <point x="695" y="700" type="line"/>
      <point x="509" y="700" type="line"/>
      <point x="509" y="644" type="line"/>
      <point x="575" y="622" type="line"/>
      <point x="382" y="112" type="line"/>
    </contour>
  </outline>
</glyph>
<glyph name="W" format="1">
  <advance width="1105"/>
  <unicode hex="0057"/>
  <outline>
    <contour>
      <point x="715" y="0" type="line"/>
      <point x="834" y="0" type="line"/>
      <point x="1008" y="607" type="line"/>
      <point x="1011" y="614"/>
      <point x="1015" y="619"/>
      <point x="1019" y="622" type="curve" smooth="yes"/>
      <point x="1024" y="626"/>
      <point x="1081" y="645"/>
      <point x="1082" y="649" type="curve" smooth="yes"/>
      <point x="1084" y="655"/>
      <point x="1084" y="666"/>
      <point x="1084" y="676" type="curve" smooth="yes"/>
      <point x="1084" y="685"/>
      <point x="1083" y="694"/>
      <point x="1082" y="700" type="curve"/>
      <point x="822" y="700" type="line"/>
      <point x="821" y="693"/>
      <point x="819" y="684"/>
      <point x="819" y="675" type="curve" smooth="yes"/>
      <point x="819" y="665"/>
      <point x="822" y="651"/>
      <point x="825" y="649" type="curve" smooth="yes"/>
      <point x="829" y="647"/>
      <point x="877" y="630"/>
      <point x="889" y="622" type="curve"/>
      <point x="891" y="620"/>
      <point x="892" y="612"/>
      <point x="890" y="607" type="curve"/>
      <point x="761" y="66" type="line"/>
      <point x="805" y="66" type="line"/>
      <point x="609" y="692" type="line"/>
      <point x="486" y="692" type="line"/>
      <point x="315" y="66" type="line"/>
      <point x="353" y="66" type="line"/>
      <point x="218" y="608" type="line"/>
      <point x="216" y="610"/>
      <point x="216" y="621"/>
      <point x="218" y="622" type="curve" smooth="yes"/>
      <point x="228" y="628"/>
      <point x="274" y="647"/>
      <point x="278" y="649" type="curve" smooth="yes"/>
      <point x="281" y="651"/>
      <point x="284" y="665"/>
      <point x="284" y="675" type="curve" smooth="yes"/>
      <point x="284" y="684"/>
      <point x="282" y="693"/>
      <point x="281" y="700" type="curve"/>
      <point x="27" y="700" type="line"/>
      <point x="26" y="694"/>
      <point x="25" y="685"/>
      <point x="25" y="676" type="curve" smooth="yes"/>
      <point x="25" y="666"/>
      <point x="25" y="655"/>
      <point x="27" y="649" type="curve" smooth="yes"/>
      <point x="28" y="645"/>
      <point x="85" y="626"/>
      <point x="90" y="622" type="curve" smooth="yes"/>
      <point x="94" y="619"/>
      <point x="98" y="614"/>
      <point x="101" y="607" type="curve"/>
      <point x="270" y="0" type="line"/>
      <point x="394" y="0" type="line"/>
      <point x="563" y="643" type="line"/>
      <point x="515" y="643" type="line"/>
    </contour>
  </outline>
</glyph>
<glyph name="X" format="1">
  <advance width="754"/>
  <unicode hex="0058"/>
  <outline>
    <contour>
      <point x="297" y="24" type="curve" smooth="yes"/>
      <point x="297" y="34"/>
      <point x="294" y="48"/>
      <point x="291" y="50" type="curve" smooth="yes"/>
      <point x="287" y="52"/>
      <point x="247" y="71"/>
      <point x="237" y="77" type="curve" smooth="yes"/>
      <point x="235" y="78"/>
      <point x="234" y="86"/>
      <point x="237" y="91" type="curve" smooth="yes"/>
      <point x="242" y="101"/>
      <point x="358" y="257"/>
      <point x="399" y="310" type="curve"/>
      <point x="356" y="309" type="line"/>
      <point x="396" y="257"/>
      <point x="515" y="99"/>
      <point x="519" y="92" type="curve"/>
      <point x="521" y="87"/>
      <point x="520" y="79"/>
      <point x="518" y="77" type="curve"/>
      <point x="506" y="69"/>
      <point x="470" y="52"/>
      <point x="466" y="50" type="curve" smooth="yes"/>
      <point x="463" y="48"/>
      <point x="460" y="34"/>
      <point x="460" y="24" type="curve" smooth="yes"/>
      <point x="460" y="15"/>
      <point x="462" y="6"/>
      <point x="463" y="-1" type="curve"/>
      <point x="728" y="-1" type="line"/>
      <point x="729" y="5"/>
      <point x="730" y="14"/>
      <point x="730" y="23" type="curve" smooth="yes"/>
      <point x="730" y="33"/>
      <point x="730" y="44"/>
      <point x="728" y="50" type="curve" smooth="yes"/>
      <point x="727" y="54"/>
      <point x="670" y="73"/>
      <point x="665" y="77" type="curve" smooth="yes"/>
      <point x="661" y="80"/>
      <point x="655" y="86"/>
      <point x="649" y="93" type="curve" smooth="yes"/>
      <point x="644" y="98"/>
      <point x="477" y="317"/>
      <point x="421" y="394" type="curve"/>
      <point x="428" y="346" type="line"/>
      <point x="479" y="418"/>
      <point x="619" y="604"/>
      <point x="628" y="612" type="curve" smooth="yes"/>
      <point x="635" y="619"/>
      <point x="640" y="621"/>
      <point x="646" y="623" type="curve" smooth="yes"/>
      <point x="651" y="625"/>
      <point x="708" y="645"/>
      <point x="709" y="649" type="curve" smooth="yes"/>
      <point x="711" y="655"/>
      <point x="711" y="666"/>
      <point x="711" y="676" type="curve" smooth="yes"/>
      <point x="711" y="685"/>
      <point x="710" y="694"/>
      <point x="709" y="700" type="curve"/>
      <point x="455" y="700" type="line"/>
      <point x="454" y="693"/>
      <point x="452" y="684"/>
      <point x="452" y="675" type="curve" smooth="yes"/>
      <point x="452" y="665"/>
      <point x="455" y="651"/>
      <point x="458" y="649" type="curve" smooth="yes"/>
      <point x="462" y="647"/>
      <point x="498" y="630"/>
      <point x="510" y="622" type="curve"/>
      <point x="512" y="620"/>
      <point x="514" y="612"/>
      <point x="511" y="607" type="curve" smooth="yes"/>
      <point x="505" y="597"/>
      <point x="410" y="474"/>
      <point x="365" y="418" type="curve"/>
      <point x="395" y="418" type="line"/>
      <point x="360" y="465"/>
      <point x="257" y="601"/>
      <point x="253" y="607" type="curve" smooth="yes"/>
      <point x="247" y="616"/>
      <point x="248" y="621"/>
      <point x="250" y="622" type="curve" smooth="yes"/>
      <point x="260" y="628"/>
      <point x="300" y="647"/>
      <point x="304" y="649" type="curve" smooth="yes"/>
      <point x="307" y="651"/>
      <point x="310" y="665"/>
      <point x="310" y="675" type="curve" smooth="yes"/>
      <point x="310" y="684"/>
      <point x="308" y="693"/>
      <point x="307" y="700" type="curve"/>
      <point x="43" y="700" type="line"/>
      <point x="42" y="694"/>
      <point x="41" y="685"/>
      <point x="41" y="676" type="curve" smooth="yes"/>
      <point x="41" y="666"/>
      <point x="41" y="655"/>
      <point x="43" y="649" type="curve" smooth="yes"/>
      <point x="44" y="645"/>
      <point x="101" y="626"/>
      <point x="106" y="622" type="curve" smooth="yes"/>
      <point x="110" y="619"/>
      <point x="116" y="615"/>
      <point x="120" y="609" type="curve" smooth="yes"/>
      <point x="124" y="603"/>
      <point x="275" y="411"/>
      <point x="327" y="342" type="curve"/>
      <point x="324" y="379" type="line"/>
      <point x="271" y="306"/>
      <point x="119" y="101"/>
      <point x="109" y="91" type="curve" smooth="yes"/>
      <point x="103" y="85"/>
      <point x="100" y="80"/>
      <point x="96" y="77" type="curve" smooth="yes"/>
      <point x="91" y="73"/>
      <point x="28" y="54"/>
      <point x="27" y="50" type="curve" smooth="yes"/>
      <point x="25" y="44"/>
      <point x="25" y="33"/>
      <point x="25" y="23" type="curve" smooth="yes"/>
      <point x="25" y="14"/>
      <point x="26" y="5"/>
      <point x="27" y="-1" type="curve"/>
      <point x="294" y="-1" type="line"/>
      <point x="295" y="6"/>
      <point x="297" y="15"/>
    </contour>
  </outline>
</glyph>
<glyph name="Y" format="1">
  <advance width="660"/>
  <unicode hex="0059"/>
  <outline>
    <contour>
      <point x="381" y="271" type="line"/>
      <point x="587" y="620" type="line"/>
      <point x="587" y="620" type="line"/>
      <point x="589" y="625"/>
      <point x="591" y="628"/>
      <point x="595" y="631" type="curve" smooth="yes"/>
      <point x="598" y="634"/>
      <point x="642" y="647"/>
      <point x="643" y="651" type="curve" smooth="yes"/>
      <point x="644" y="654"/>
      <point x="646" y="669"/>
      <point x="646" y="676" type="curve" smooth="yes"/>
      <point x="646" y="683"/>
      <point x="643" y="695"/>
      <point x="643" y="700" type="curve"/>
      <point x="429" y="700" type="line"/>
      <point x="428" y="695"/>
      <point x="425" y="682"/>
      <point x="425" y="676" type="curve" smooth="yes"/>
      <point x="425" y="669"/>
      <point x="429" y="652"/>
      <point x="431" y="651" type="curve" smooth="yes"/>
      <point x="434" y="650"/>
      <point x="467" y="637"/>
      <point x="475" y="631" type="curve"/>
      <point x="476" y="629"/>
      <point x="477" y="623"/>
      <point x="476" y="620" type="curve"/>
      <point x="330" y="348" type="line"/>
      <point x="343" y="348" type="line"/>
      <point x="194" y="621" type="line"/>
      <point x="193" y="622"/>
      <point x="193" y="631"/>
      <point x="194" y="631" type="curve" smooth="yes"/>
      <point x="200" y="635"/>
      <point x="237" y="650"/>
      <point x="240" y="651" type="curve" smooth="yes"/>
      <point x="242" y="652"/>
      <point x="246" y="669"/>
      <point x="246" y="676" type="curve" smooth="yes"/>
      <point x="246" y="682"/>
      <point x="243" y="695"/>
      <point x="242" y="700" type="curve"/>
      <point x="21" y="700" type="line"/>
      <point x="20" y="695"/>
      <point x="18" y="683"/>
      <point x="18" y="676" type="curve" smooth="yes"/>
      <point x="18" y="669"/>
      <point x="20" y="654"/>
      <point x="21" y="651" type="curve" smooth="yes"/>
      <point x="22" y="647"/>
      <point x="66" y="634"/>
      <point x="69" y="631" type="curve" smooth="yes"/>
      <point x="72" y="628"/>
      <point x="75" y="625"/>
      <point x="77" y="620" type="curve"/>
      <point x="274" y="271" type="line"/>
      <point x="274" y="93" type="line"/>
      <point x="274" y="82"/>
      <point x="268" y="78"/>
      <point x="261" y="75" type="curve" smooth="yes"/>
      <point x="247" y="68"/>
      <point x="206" y="54"/>
      <point x="204" y="50" type="curve" smooth="yes"/>
      <point x="201" y="44"/>
      <point x="201" y="39"/>
      <point x="201" y="26" type="curve" smooth="yes"/>
      <point x="201" y="13"/>
      <point x="202" y="7"/>
      <point x="204" y="1" type="curve"/>
      <point x="451" y="1" type="line"/>
      <point x="453" y="7"/>
      <point x="454" y="13"/>
      <point x="454" y="26" type="curve" smooth="yes"/>
      <point x="454" y="39"/>
      <point x="454" y="44"/>
      <point x="451" y="50" type="curve" smooth="yes"/>
      <point x="449" y="54"/>
      <point x="404" y="69"/>
      <point x="393" y="75" type="curve"/>
      <point x="384" y="78"/>
      <point x="381" y="85"/>
      <point x="381" y="96" type="curve"/>
    </contour>
  </outline>
</glyph>
<glyph name="Z" format="1">
  <advance width="603"/>
  <unicode hex="005A"/>
  <outline>
    <contour>
      <point x="469" y="86" type="line"/>
      <point x="480" y="86"/>
      <point x="484" y="93"/>
      <point x="487" y="101" type="curve"/>
      <point x="494" y="118"/>
      <point x="524" y="186"/>
      <point x="528" y="188" type="curve" smooth="yes"/>
      <point x="534" y="192"/>
      <point x="539" y="192"/>
      <point x="552" y="192" type="curve" smooth="yes"/>
      <point x="565" y="192"/>
      <point x="571" y="190"/>
      <point x="577" y="188" type="curve"/>
      <point x="538" y="1" type="line"/>
      <point x="47" y="1" type="line"/>
      <point x="35" y="1"/>
      <point x="27" y="25"/>
      <point x="27" y="42" type="curve"/>
      <point x="27" y="58"/>
      <point x="30" y="84"/>
      <point x="35" y="92" type="curve"/>
      <point x="432" y="632" type="line"/>
      <point x="436" y="618" type="line"/>
      <point x="181" y="618" type="line"/>
      <point x="170" y="620"/>
      <point x="160" y="615"/>
      <point x="154" y="604" type="curve" smooth="yes"/>
      <point x="147" y="591"/>
      <point x="95" y="513"/>
      <point x="91" y="510" type="curve" smooth="yes"/>
      <point x="85" y="507"/>
      <point x="80" y="507"/>
      <point x="67" y="507" type="curve" smooth="yes"/>
      <point x="54" y="507"/>
      <point x="48" y="508"/>
      <point x="42" y="510" type="curve"/>
      <point x="83" y="683" type="line"/>
      <point x="85" y="692"/>
      <point x="89" y="697"/>
      <point x="97" y="700" type="curve"/>
      <point x="533" y="700" type="line"/>
      <point x="545" y="700"/>
      <point x="555" y="678"/>
      <point x="555" y="665" type="curve"/>
      <point x="555" y="649"/>
      <point x="555" y="615"/>
      <point x="546" y="607" type="curve"/>
      <point x="158" y="64" type="line"/>
      <point x="156" y="86" type="line"/>
    </contour>
  </outline>
</glyph>
<glyph name="underscore" format="1">
  <advance width="532"/>
  <unicode hex="005F"/>
  <outline>
    <contour>
      <point x="55" y="113" type="line"/>
      <point x="43" y="113"/>
      <point x="38" y="107"/>
      <point x="38" y="101" type="curve"/>
      <point x="38" y="12" type="line"/>
      <point x="38" y="4"/>
      <point x="42" y="0"/>
      <point x="53" y="0" type="curve"/>
      <point x="480" y="0" type="line"/>
      <point x="491" y="0"/>
      <point x="495" y="4"/>
      <point x="495" y="12" type="curve"/>
      <point x="495" y="101" type="line"/>
      <point x="495" y="107"/>
      <point x="490" y="113"/>
      <point x="478" y="113" type="curve"/>
    </contour>
  </outline>
</glyph>
<glyph name="a" format="1">
  <advance width="731"/>
  <unicode hex="0061"/>
  <outline>
    <contour>
      <point x="337" y="477" type="curve" smooth="yes"/>
      <point x="441" y="477"/>
      <point x="515" y="383"/>
      <point x="515" y="275" type="curve" smooth="yes"/>
      <point x="515" y="171"/>
      <point x="447" y="73"/>
      <point x="335" y="73" type="curve" smooth="yes"/>
      <point x="224" y="73"/>
      <point x="162" y="167"/>
      <point x="162" y="275" type="curve" smooth="yes"/>
      <point x="162" y="383"/>
      <point x="228" y="477"/>
    </contour>
    <contour>
      <point x="524" y="82"/>
      <point x="547" y="0"/>
      <point x="562" y="0" type="curve"/>
      <point x="687" y="0" type="line"/>
      <point x="696" y="0"/>
      <point x="701" y="15"/>
      <point x="701" y="24" type="curve" smooth="yes"/>
      <point x="701" y="32"/>
      <point x="700" y="46"/>
      <point x="693" y="49" type="curve"/>
      <point x="675" y="53"/>
      <point x="627" y="72"/>
      <point x="621" y="74" type="curve" smooth="yes"/>
      <point x="615" y="76"/>
      <point x="609" y="87"/>
      <point x="609" y="92" type="curve"/>
      <point x="609" y="466" type="line"/>
      <point x="609" y="470"/>
      <point x="612" y="475"/>
      <point x="617" y="477" type="curve"/>
      <point x="677" y="502" type="line"/>
      <point x="682" y="504"/>
      <point x="685" y="513"/>
      <point x="685" y="529" type="curve"/>
      <point x="685" y="545"/>
      <point x="679" y="550"/>
      <point x="674" y="550" type="curve"/>
      <point x="559" y="550" type="line"/>
      <point x="537" y="550"/>
      <point x="528" y="546"/>
      <point x="527" y="515" type="curve"/>
      <point x="527" y="507"/>
      <point x="525" y="450"/>
      <point x="525" y="412" type="curve"/>
      <point x="537" y="424" type="line"/>
      <point x="537" y="492"/>
      <point x="435" y="565"/>
      <point x="326" y="565" type="curve" smooth="yes"/>
      <point x="167" y="565"/>
      <point x="52" y="435"/>
      <point x="52" y="274" type="curve" smooth="yes"/>
      <point x="52" y="114"/>
      <point x="169" y="-15"/>
      <point x="328" y="-15" type="curve" smooth="yes"/>
      <point x="456" y="-15"/>
      <point x="535" y="85"/>
      <point x="535" y="132" type="curve"/>
      <point x="524" y="132" type="line"/>
    </contour>
  </outline>
</glyph>
<glyph name="b" format="1">
  <advance width="675"/>
  <unicode hex="0062"/>
  <outline>
    <contour>
      <point x="187" y="270" type="curve" smooth="yes"/>
      <point x="187" y="379"/>
      <point x="257" y="477"/>
      <point x="354" y="477" type="curve"/>
      <point x="456" y="477"/>
      <point x="533" y="408"/>
      <point x="533" y="278" type="curve"/>
      <point x="533" y="168"/>
      <point x="469" y="81"/>
      <point x="363" y="81" type="curve"/>
      <point x="255" y="81"/>
      <point x="187" y="145"/>
    </contour>
    <contour>
      <point x="188" y="723" type="line"/>
      <point x="187" y="742"/>
      <point x="176" y="750"/>
      <point x="158" y="750" type="curve"/>
      <point x="13" y="750" type="line"/>
      <point x="7" y="750"/>
      <point x="3" y="737"/>
      <point x="3" y="725" type="curve"/>
      <point x="3" y="714"/>
      <point x="8" y="699"/>
      <point x="13" y="699" type="curve"/>
      <point x="85" y="663" type="line"/>
      <point x="85" y="0" type="line"/>
      <point x="122" y="0" type="line"/>
      <point x="133" y="0"/>
      <point x="138" y="7"/>
      <point x="142" y="15" type="curve"/>
      <point x="195" y="93" type="line"/>
      <point x="177" y="91" type="line"/>
      <point x="177" y="29"/>
      <point x="284" y="-16"/>
      <point x="359" y="-16" type="curve"/>
      <point x="500" y="-16"/>
      <point x="635" y="92"/>
      <point x="635" y="286" type="curve"/>
      <point x="635" y="438"/>
      <point x="541" y="565"/>
      <point x="364" y="565" type="curve"/>
      <point x="271" y="565"/>
      <point x="173" y="501"/>
      <point x="173" y="457" type="curve"/>
      <point x="188" y="463" type="line"/>
    </contour>
  </outline>
</glyph>
<glyph name="c" format="1">
  <advance width="580"/>
  <unicode hex="0063"/>
  <outline>
    <contour>
      <point x="484" y="448" type="curve"/>
      <point x="459" y="468"/>
      <point x="432" y="482"/>
      <point x="366" y="482" type="curve"/>
      <point x="258" y="482"/>
      <point x="158" y="417"/>
      <point x="158" y="266" type="curve"/>
      <point x="158" y="156"/>
      <point x="237" y="73"/>
      <point x="351" y="73" type="curve"/>
      <point x="429" y="73"/>
      <point x="499" y="102"/>
      <point x="520" y="121" type="curve"/>
      <point x="555" y="54" type="line"/>
      <point x="533" y="31"/>
      <point x="464" y="-14"/>
      <point x="351" y="-14" type="curve"/>
      <point x="186" y="-14"/>
      <point x="50" y="91"/>
      <point x="50" y="270" type="curve"/>
      <point x="50" y="458"/>
      <point x="204" y="564"/>
      <point x="353" y="564" type="curve"/>
      <point x="445" y="564"/>
      <point x="491" y="554"/>
      <point x="547" y="521" type="curve"/>
      <point x="551" y="521"/>
      <point x="547" y="381"/>
      <point x="545" y="381" type="curve" smooth="yes"/>
      <point x="540" y="378"/>
      <point x="535" y="378"/>
      <point x="524" y="378" type="curve" smooth="yes"/>
      <point x="513" y="378"/>
      <point x="509" y="378"/>
      <point x="504" y="381" type="curve" smooth="yes"/>
      <point x="501" y="382"/>
      <point x="489" y="440"/>
    </contour>
  </outline>
</glyph>
<glyph name="d" format="1">
  <advance width="736"/>
  <unicode hex="0064"/>
  <outline>
    <contour>
      <point x="342" y="477" type="curve" smooth="yes"/>
      <point x="446" y="477"/>
      <point x="523" y="383"/>
      <point x="523" y="275" type="curve" smooth="yes"/>
      <point x="523" y="167"/>
      <point x="452" y="80"/>
      <point x="340" y="80" type="curve" smooth="yes"/>
      <point x="229" y="80"/>
      <point x="157" y="167"/>
      <point x="157" y="275" type="curve" smooth="yes"/>
      <point x="157" y="383"/>
      <point x="233" y="477"/>
    </contour>
    <contour>
      <point x="623" y="723" type="curve"/>
      <point x="622" y="742"/>
      <point x="611" y="750"/>
      <point x="593" y="750" type="curve"/>
      <point x="448" y="750" type="line"/>
      <point x="442" y="750"/>
      <point x="438" y="737"/>
      <point x="438" y="725" type="curve"/>
      <point x="438" y="714"/>
      <point x="443" y="699"/>
      <point x="448" y="699" type="curve"/>
      <point x="526" y="671" type="line"/>
      <point x="526" y="663"/>
      <point x="526" y="450"/>
      <point x="526" y="412" type="curve"/>
      <point x="538" y="412" type="line"/>
      <point x="538" y="479"/>
      <point x="436" y="565"/>
      <point x="327" y="565" type="curve" smooth="yes"/>
      <point x="168" y="565"/>
      <point x="50" y="435"/>
      <point x="50" y="274" type="curve" smooth="yes"/>
      <point x="50" y="114"/>
      <point x="170" y="-15"/>
      <point x="329" y="-15" type="curve" smooth="yes"/>
      <point x="457" y="-15"/>
      <point x="536" y="85"/>
      <point x="536" y="132" type="curve"/>
      <point x="525" y="132" type="line"/>
      <point x="525" y="82"/>
      <point x="538" y="0"/>
      <point x="563" y="0" type="curve"/>
      <point x="706" y="0" type="line"/>
      <point x="711" y="0"/>
      <point x="717" y="17"/>
      <point x="716" y="34" type="curve"/>
      <point x="716" y="49"/>
      <point x="713" y="62"/>
      <point x="704" y="64" type="curve"/>
      <point x="623" y="90" type="line"/>
      <point x="618" y="176"/>
      <point x="620" y="603"/>
    </contour>
  </outline>
</glyph>
<glyph name="e" format="1">
  <advance width="647"/>
  <unicode hex="0065"/>
  <outline>
    <contour>
      <point x="588" y="97" type="line"/>
      <point x="544" y="50"/>
      <point x="479" y="-14"/>
      <point x="339" y="-14" type="curve"/>
      <point x="169" y="-14"/>
      <point x="52" y="103"/>
      <point x="52" y="274" type="curve" smooth="yes"/>
      <point x="52" y="435"/>
      <point x="178" y="567"/>
      <point x="346" y="567" type="curve"/>
      <point x="481" y="567"/>
      <point x="596" y="453"/>
      <point x="596" y="304" type="curve"/>
      <point x="596" y="288"/>
      <point x="566" y="262"/>
      <point x="546" y="262" type="curve"/>
      <point x="121" y="262" type="line"/>
      <point x="122" y="340" type="line"/>
      <point x="520" y="340" type="line"/>
      <point x="505" y="312" type="line"/>
      <point x="505" y="382"/>
      <point x="440" y="480"/>
      <point x="341" y="480" type="curve" smooth="yes"/>
      <point x="232" y="480"/>
      <point x="156" y="382"/>
      <point x="156" y="274" type="curve" smooth="yes"/>
      <point x="156" y="144"/>
      <point x="250" y="74"/>
      <point x="342" y="74" type="curve"/>
      <point x="436" y="74"/>
      <point x="490" y="109"/>
      <point x="548" y="158" type="curve"/>
    </contour>
  </outline>
</glyph>
<glyph name="f" format="1">
  <advance width="450"/>
  <unicode hex="0066"/>
  <outline>
    <contour>
      <point x="207" y="680"/>
      <point x="192" y="628"/>
      <point x="192" y="547" type="curve"/>
      <point x="192" y="475"/>
      <point x="192" y="223"/>
      <point x="192" y="93" type="curve"/>
      <point x="192" y="86"/>
      <point x="196" y="80"/>
      <point x="204" y="77" type="curve"/>
      <point x="215" y="71"/>
      <point x="288" y="53"/>
      <point x="290" y="49" type="curve" smooth="yes"/>
      <point x="293" y="43"/>
      <point x="293" y="38"/>
      <point x="293" y="25" type="curve" smooth="yes"/>
      <point x="293" y="12"/>
      <point x="292" y="6"/>
      <point x="290" y="0" type="curve"/>
      <point x="47" y="0" type="line"/>
      <point x="45" y="6"/>
      <point x="44" y="12"/>
      <point x="44" y="25" type="curve" smooth="yes"/>
      <point x="44" y="38"/>
      <point x="44" y="43"/>
      <point x="47" y="49" type="curve" smooth="yes"/>
      <point x="49" y="53"/>
      <point x="61" y="68"/>
      <point x="76" y="77" type="curve"/>
      <point x="83" y="80"/>
      <point x="87" y="86"/>
      <point x="87" y="93" type="curve"/>
      <point x="87" y="226"/>
      <point x="87" y="479"/>
      <point x="87" y="555" type="curve"/>
      <point x="87" y="660"/>
      <point x="127" y="766"/>
      <point x="283" y="766" type="curve"/>
      <point x="372" y="766"/>
      <point x="406" y="741"/>
      <point x="410" y="737" type="curve"/>
      <point x="435" y="616" type="line"/>
      <point x="432" y="613"/>
      <point x="418" y="612"/>
      <point x="410" y="612" type="curve"/>
      <point x="401" y="612"/>
      <point x="385" y="613"/>
      <point x="382" y="616" type="curve"/>
      <point x="366" y="657"/>
      <point x="347" y="680"/>
      <point x="288" y="680" type="curve"/>
    </contour>
    <contour>
      <point x="31" y="490" type="curve"/>
      <point x="340" y="490" type="line"/>
      <point x="345" y="490"/>
      <point x="353" y="472"/>
      <point x="353" y="452" type="curve" smooth="yes"/>
      <point x="353" y="436"/>
      <point x="350" y="417"/>
      <point x="346" y="417" type="curve"/>
      <point x="31" y="417" type="line"/>
      <point x="28" y="417"/>
      <point x="25" y="441"/>
      <point x="25" y="454" type="curve" smooth="yes"/>
      <point x="25" y="467"/>
      <point x="28" y="490"/>
    </contour>
  </outline>
</glyph>
<glyph name="g" format="1">
  <advance width="643"/>
  <unicode hex="0067"/>
  <outline>
    <contour>
      <point x="421" y="523" type="curve"/>
      <point x="473" y="472" type="line"/>
      <point x="483" y="485"/>
      <point x="518" y="507"/>
      <point x="547" y="515" type="curve" smooth="yes"/>
      <point x="567" y="520"/>
      <point x="601" y="504"/>
      <point x="601" y="500" type="curve"/>
      <point x="631" y="500" type="line"/>
      <point x="641" y="500"/>
      <point x="646" y="540"/>
      <point x="646" y="560" type="curve" smooth="yes"/>
      <point x="646" y="580"/>
      <point x="633" y="609"/>
      <point x="628" y="609" type="curve"/>
      <point x="612" y="609"/>
      <point x="556" y="608"/>
      <point x="529" y="599" type="curve" smooth="yes"/>
      <point x="499" y="589"/>
      <point x="452" y="545"/>
    </contour>
    <contour>
      <point x="303" y="471" type="curve" smooth="yes"/>
      <point x="418" y="471"/>
      <point x="484" y="383"/>
      <point x="484" y="277" type="curve" smooth="yes"/>
      <point x="484" y="160"/>
      <point x="412" y="74"/>
      <point x="303" y="74" type="curve" smooth="yes"/>
      <point x="201" y="74"/>
      <point x="119" y="153"/>
      <point x="119" y="277" type="curve" smooth="yes"/>
      <point x="119" y="383"/>
      <point x="201" y="471"/>
    </contour>
    <contour>
      <point x="314" y="-374" type="curve"/>
      <point x="460" y="-374"/>
      <point x="575" y="-260"/>
      <point x="575" y="-145" type="curve"/>
      <point x="575" y="-36"/>
      <point x="497" y="37"/>
      <point x="428" y="37" type="curve"/>
      <point x="433" y="18" type="line"/>
      <point x="486" y="18"/>
      <point x="593" y="131"/>
      <point x="593" y="280" type="curve" smooth="yes"/>
      <point x="593" y="432"/>
      <point x="475" y="563"/>
      <point x="303" y="563" type="curve" smooth="yes"/>
      <point x="127" y="563"/>
      <point x="13" y="441"/>
      <point x="13" y="277" type="curve" smooth="yes"/>
      <point x="13" y="89"/>
      <point x="154" y="-15"/>
      <point x="297" y="-15" type="curve"/>
      <point x="406" y="-15"/>
      <point x="472" y="-58"/>
      <point x="472" y="-151" type="curve"/>
      <point x="472" y="-217"/>
      <point x="409" y="-280"/>
      <point x="322" y="-280" type="curve"/>
      <point x="216" y="-280"/>
      <point x="157" y="-217"/>
      <point x="157" y="-169" type="curve"/>
      <point x="85" y="-216" type="line"/>
      <point x="85" y="-266"/>
      <point x="175" y="-374"/>
    </contour>
  </outline>
</glyph>
<glyph name="h" format="1">
  <advance width="741"/>
  <unicode hex="0068"/>
  <outline>
    <contour>
      <point x="120" y="92" type="line"/>
      <point x="120" y="83"/>
      <point x="116" y="79"/>
      <point x="110" y="74" type="curve" smooth="yes"/>
      <point x="102" y="68"/>
      <point x="66" y="52"/>
      <point x="63" y="49" type="curve" smooth="yes"/>
      <point x="61" y="42"/>
      <point x="61" y="37"/>
      <point x="60" y="25" type="curve" smooth="yes"/>
      <point x="61" y="11"/>
      <point x="62" y="5"/>
      <point x="63" y="0" type="curve"/>
      <point x="306" y="0" type="line"/>
      <point x="308" y="5"/>
      <point x="310" y="11"/>
      <point x="310" y="25" type="curve" smooth="yes"/>
      <point x="310" y="37"/>
      <point x="309" y="42"/>
      <point x="305" y="49" type="curve"/>
      <point x="304" y="52"/>
      <point x="249" y="68"/>
      <point x="236" y="74" type="curve" smooth="yes"/>
      <point x="228" y="77"/>
      <point x="225" y="82"/>
      <point x="224" y="90" type="curve"/>
      <point x="224" y="168"/>
      <point x="224" y="239"/>
      <point x="224" y="308" type="curve" smooth="yes"/>
      <point x="224" y="416"/>
      <point x="288" y="477"/>
      <point x="370" y="477" type="curve" smooth="yes"/>
      <point x="460" y="477"/>
      <point x="518" y="431"/>
      <point x="518" y="309" type="curve" smooth="yes"/>
      <point x="518" y="244"/>
      <point x="519" y="116"/>
      <point x="518" y="47" type="curve"/>
      <point x="518" y="16"/>
      <point x="531" y="0"/>
      <point x="553" y="0" type="curve"/>
      <point x="711" y="0" type="line"/>
      <point x="718" y="0"/>
      <point x="721" y="13"/>
      <point x="721" y="26" type="curve" smooth="yes"/>
      <point x="721" y="42"/>
      <point x="720" y="45"/>
      <point x="714" y="49" type="curve" smooth="yes"/>
      <point x="708" y="53"/>
      <point x="642" y="80"/>
      <point x="633" y="85" type="curve"/>
      <point x="627" y="91"/>
      <point x="622" y="96"/>
      <point x="622" y="101" type="curve" smooth="yes"/>
      <point x="622" y="163"/>
      <point x="622" y="280"/>
      <point x="622" y="332" type="curve" smooth="yes"/>
      <point x="622" y="464"/>
      <point x="559" y="565"/>
      <point x="395" y="565" type="curve"/>
      <point x="275" y="565"/>
      <point x="200" y="472"/>
      <point x="200" y="427" type="curve"/>
      <point x="221" y="429" type="line"/>
      <point x="221" y="723" type="line"/>
      <point x="220" y="742"/>
      <point x="209" y="750"/>
      <point x="191" y="750" type="curve"/>
      <point x="48" y="750" type="line"/>
      <point x="46" y="744"/>
      <point x="45" y="738"/>
      <point x="45" y="725" type="curve" smooth="yes"/>
      <point x="45" y="712"/>
      <point x="45" y="711"/>
      <point x="48" y="705" type="curve" smooth="yes"/>
      <point x="50" y="701"/>
      <point x="94" y="683"/>
      <point x="110" y="677" type="curve" smooth="yes"/>
      <point x="117" y="674"/>
      <point x="120" y="668"/>
      <point x="120" y="661" type="curve"/>
    </contour>
  </outline>
</glyph>
<glyph name="i" format="1">
  <advance width="364"/>
  <unicode hex="0069"/>
  <outline>
    <contour>
      <point x="230" y="101" type="line" smooth="yes"/>
      <point x="230" y="96"/>
      <point x="235" y="91"/>
      <point x="241" y="85" type="curve"/>
      <point x="250" y="80"/>
      <point x="313" y="53"/>
      <point x="319" y="49" type="curve" smooth="yes"/>
      <point x="325" y="45"/>
      <point x="326" y="42"/>
      <point x="326" y="26" type="curve" smooth="yes"/>
      <point x="326" y="13"/>
      <point x="322" y="8"/>
      <point x="321" y="0" type="curve"/>
      <point x="157" y="0" type="line"/>
      <point x="135" y="0"/>
      <point x="122" y="16"/>
      <point x="122" y="47" type="curve"/>
      <point x="128" y="461" type="line"/>
      <point x="128" y="468"/>
      <point x="125" y="474"/>
      <point x="118" y="477" type="curve" smooth="yes"/>
      <point x="102" y="483"/>
      <point x="58" y="501"/>
      <point x="56" y="505" type="curve" smooth="yes"/>
      <point x="53" y="511"/>
      <point x="53" y="512"/>
      <point x="53" y="525" type="curve" smooth="yes"/>
      <point x="53" y="538"/>
      <point x="54" y="544"/>
      <point x="56" y="550" type="curve"/>
      <point x="206" y="550" type="line"/>
      <point x="224" y="550"/>
      <point x="235" y="542"/>
      <point x="236" y="523" type="curve"/>
    </contour>
    <contour>
      <point x="172" y="612" type="curve" smooth="yes"/>
      <point x="217" y="612"/>
      <point x="237" y="625"/>
      <point x="237" y="673" type="curve" smooth="yes"/>
      <point x="237" y="720"/>
      <point x="217" y="732"/>
      <point x="172" y="732" type="curve" smooth="yes"/>
      <point x="129" y="732"/>
      <point x="110" y="720"/>
      <point x="110" y="673" type="curve" smooth="yes"/>
      <point x="110" y="625"/>
      <point x="129" y="612"/>
    </contour>
  </outline>
</glyph>
<glyph name="j" format="1">
  <advance width="443"/>
  <unicode hex="006A"/>
  <outline>
    <contour>
      <point x="249" y="-130"/>
      <point x="264" y="-78"/>
      <point x="264" y="3" type="curve"/>
      <point x="264" y="75"/>
      <point x="264" y="327"/>
      <point x="264" y="457" type="curve"/>
      <point x="264" y="464"/>
      <point x="260" y="470"/>
      <point x="252" y="473" type="curve"/>
      <point x="241" y="479"/>
      <point x="196" y="497"/>
      <point x="194" y="501" type="curve" smooth="yes"/>
      <point x="191" y="507"/>
      <point x="191" y="512"/>
      <point x="191" y="525" type="curve" smooth="yes"/>
      <point x="191" y="538"/>
      <point x="192" y="544"/>
      <point x="194" y="550" type="curve"/>
      <point x="355" y="550" type="line"/>
      <point x="366" y="550"/>
      <point x="369" y="540"/>
      <point x="369" y="517" type="curve"/>
      <point x="369" y="335"/>
      <point x="369" y="71"/>
      <point x="369" y="-5" type="curve"/>
      <point x="369" y="-110"/>
      <point x="329" y="-216"/>
      <point x="173" y="-216" type="curve"/>
      <point x="84" y="-216"/>
      <point x="50" y="-191"/>
      <point x="46" y="-187" type="curve"/>
      <point x="21" y="-66" type="line"/>
      <point x="24" y="-63"/>
      <point x="38" y="-62"/>
      <point x="46" y="-62" type="curve"/>
      <point x="55" y="-62"/>
      <point x="71" y="-63"/>
      <point x="74" y="-66" type="curve"/>
      <point x="90" y="-88"/>
      <point x="109" y="-130"/>
      <point x="168" y="-130" type="curve"/>
    </contour>
    <contour>
      <point x="303" y="612" type="curve" smooth="yes"/>
      <point x="348" y="612"/>
      <point x="368" y="625"/>
      <point x="368" y="673" type="curve" smooth="yes"/>
      <point x="368" y="720"/>
      <point x="348" y="732"/>
      <point x="303" y="732" type="curve" smooth="yes"/>
      <point x="260" y="732"/>
      <point x="241" y="720"/>
      <point x="241" y="673" type="curve" smooth="yes"/>
      <point x="241" y="625"/>
      <point x="260" y="612"/>
    </contour>
  </outline>
</glyph>
<glyph name="k" format="1">
  <advance width="681"/>
  <unicode hex="006B"/>
  <outline>
    <contour>
      <point x="652" y="0" type="line"/>
      <point x="654" y="6"/>
      <point x="655" y="12"/>
      <point x="655" y="25" type="curve" smooth="yes"/>
      <point x="655" y="38"/>
      <point x="655" y="43"/>
      <point x="652" y="49" type="curve" smooth="yes"/>
      <point x="650" y="53"/>
      <point x="605" y="68"/>
      <point x="594" y="74" type="curve"/>
      <point x="585" y="77"/>
      <point x="580" y="83"/>
      <point x="574" y="92" type="curve"/>
      <point x="373" y="382" type="line"/>
      <point x="307" y="320" type="line"/>
      <point x="499" y="9" type="line"/>
      <point x="502" y="4"/>
      <point x="506" y="1"/>
      <point x="511" y="0" type="curve"/>
    </contour>
    <contour>
      <point x="205" y="174" type="line"/>
      <point x="291" y="232"/>
      <point x="487" y="444"/>
      <point x="499" y="456" type="curve" smooth="yes"/>
      <point x="546" y="503"/>
      <point x="584" y="499"/>
      <point x="587" y="506" type="curve" smooth="yes"/>
      <point x="590" y="512"/>
      <point x="590" y="523"/>
      <point x="590" y="536" type="curve" smooth="yes"/>
      <point x="590" y="549"/>
      <point x="589" y="557"/>
      <point x="587" y="563" type="curve"/>
      <point x="361" y="563" type="line"/>
      <point x="359" y="557"/>
      <point x="358" y="551"/>
      <point x="358" y="538" type="curve" smooth="yes"/>
      <point x="358" y="525"/>
      <point x="358" y="520"/>
      <point x="361" y="514" type="curve" smooth="yes"/>
      <point x="363" y="510"/>
      <point x="381" y="503"/>
      <point x="396" y="494" type="curve"/>
      <point x="403" y="491"/>
      <point x="407" y="486"/>
      <point x="407" y="479" type="curve"/>
      <point x="407" y="473"/>
      <point x="248" y="308"/>
      <point x="182" y="274" type="curve"/>
    </contour>
    <contour>
      <point x="228" y="723" type="line"/>
      <point x="227" y="742"/>
      <point x="216" y="750"/>
      <point x="198" y="750" type="curve"/>
      <point x="53" y="750" type="line"/>
      <point x="51" y="744"/>
      <point x="50" y="738"/>
      <point x="50" y="725" type="curve" smooth="yes"/>
      <point x="50" y="712"/>
      <point x="50" y="711"/>
      <point x="53" y="705" type="curve" smooth="yes"/>
      <point x="55" y="701"/>
      <point x="99" y="683"/>
      <point x="115" y="677" type="curve" smooth="yes"/>
      <point x="122" y="674"/>
      <point x="125" y="668"/>
      <point x="125" y="661" type="curve"/>
      <point x="125" y="92" type="line"/>
      <point x="125" y="83"/>
      <point x="121" y="79"/>
      <point x="115" y="74" type="curve" smooth="yes"/>
      <point x="107" y="68"/>
      <point x="71" y="52"/>
      <point x="68" y="49" type="curve" smooth="yes"/>
      <point x="66" y="42"/>
      <point x="66" y="37"/>
      <point x="65" y="25" type="curve" smooth="yes"/>
      <point x="66" y="11"/>
      <point x="67" y="5"/>
      <point x="68" y="0" type="curve"/>
      <point x="310" y="0" type="line"/>
      <point x="312" y="5"/>
      <point x="314" y="11"/>
      <point x="314" y="25" type="curve" smooth="yes"/>
      <point x="314" y="37"/>
      <point x="313" y="42"/>
      <point x="309" y="49" type="curve"/>
      <point x="308" y="52"/>
      <point x="253" y="68"/>
      <point x="240" y="74" type="curve" smooth="yes"/>
      <point x="232" y="77"/>
      <point x="229" y="82"/>
      <point x="228" y="90" type="curve"/>
    </contour>
  </outline>
</glyph>
<glyph name="l" format="1">
  <advance width="368"/>
  <unicode hex="006C"/>
  <outline>
    <contour>
      <point x="224" y="723" type="line"/>
      <point x="223" y="742"/>
      <point x="212" y="750"/>
      <point x="194" y="750" type="curve"/>
      <point x="46" y="750" type="line"/>
      <point x="46" y="691" type="line"/>
      <point x="118" y="663" type="line"/>
      <point x="114" y="47" type="line"/>
      <point x="114" y="16"/>
      <point x="127" y="0"/>
      <point x="149" y="0" type="curve"/>
      <point x="305" y="0" type="line"/>
      <point x="305" y="64" type="line"/>
      <point x="219" y="90" type="line"/>
    </contour>
  </outline>
</glyph>
<glyph name="m" format="1">
  <advance width="1084"/>
  <unicode hex="006D"/>
  <outline>
    <contour>
      <point x="128" y="91" type="line"/>
      <point x="128" y="82"/>
      <point x="126" y="79"/>
      <point x="120" y="74" type="curve" smooth="yes"/>
      <point x="112" y="68"/>
      <point x="89" y="53"/>
      <point x="87" y="49" type="curve" smooth="yes"/>
      <point x="85" y="45"/>
      <point x="83" y="37"/>
      <point x="83" y="25" type="curve" smooth="yes"/>
      <point x="83" y="11"/>
      <point x="85" y="0"/>
      <point x="87" y="0" type="curve"/>
      <point x="309" y="0" type="line"/>
      <point x="313" y="0"/>
      <point x="316" y="12"/>
      <point x="316" y="26" type="curve" smooth="yes"/>
      <point x="316" y="38"/>
      <point x="314" y="48"/>
      <point x="312" y="49" type="curve" smooth="yes"/>
      <point x="308" y="51"/>
      <point x="253" y="67"/>
      <point x="241" y="74" type="curve"/>
      <point x="233" y="76"/>
      <point x="230" y="83"/>
      <point x="229" y="95" type="curve"/>
      <point x="228" y="162"/>
      <point x="229" y="233"/>
      <point x="231" y="302" type="curve" smooth="yes"/>
      <point x="234" y="412"/>
      <point x="281" y="474"/>
      <point x="359" y="474" type="curve"/>
      <point x="418" y="474"/>
      <point x="488" y="441"/>
      <point x="496" y="323" type="curve" smooth="yes"/>
      <point x="502" y="236"/>
      <point x="497" y="124"/>
      <point x="494" y="30" type="curve"/>
      <point x="494" y="12"/>
      <point x="509" y="0"/>
      <point x="531" y="0" type="curve"/>
      <point x="688" y="0" type="line"/>
      <point x="688" y="64" type="line"/>
      <point x="598" y="90" type="line"/>
      <point x="598" y="138"/>
      <point x="598" y="248"/>
      <point x="598" y="358" type="curve"/>
      <point x="617" y="439"/>
      <point x="678" y="474"/>
      <point x="743" y="474" type="curve"/>
      <point x="782" y="474"/>
      <point x="855" y="441"/>
      <point x="863" y="323" type="curve" smooth="yes"/>
      <point x="869" y="236"/>
      <point x="864" y="124"/>
      <point x="861" y="30" type="curve"/>
      <point x="861" y="12"/>
      <point x="876" y="0"/>
      <point x="898" y="0" type="curve"/>
      <point x="1054" y="0" type="line"/>
      <point x="1054" y="64" type="line"/>
      <point x="965" y="90" type="line"/>
      <point x="965" y="138"/>
      <point x="971" y="238"/>
      <point x="965" y="346" type="curve" smooth="yes"/>
      <point x="958" y="469"/>
      <point x="900" y="565"/>
      <point x="775" y="565" type="curve"/>
      <point x="681" y="565"/>
      <point x="600" y="530"/>
      <point x="557" y="448" type="curve"/>
      <point x="584" y="448" type="line"/>
      <point x="543" y="536"/>
      <point x="490" y="565"/>
      <point x="397" y="565" type="curve"/>
      <point x="307" y="565"/>
      <point x="238" y="523"/>
      <point x="199" y="444" type="curve"/>
      <point x="214" y="441" type="line"/>
      <point x="209" y="523" type="line"/>
      <point x="208" y="542"/>
      <point x="197" y="550"/>
      <point x="179" y="550" type="curve"/>
      <point x="50" y="550" type="line"/>
      <point x="50" y="491" type="line"/>
      <point x="128" y="463" type="line"/>
    </contour>
  </outline>
</glyph>
<glyph name="n" format="1">
  <advance width="753"/>
  <unicode hex="006E"/>
  <outline>
    <contour>
      <point x="229" y="302" type="curve" smooth="yes"/>
      <point x="232" y="412"/>
      <point x="288" y="476"/>
      <point x="375" y="476" type="curve"/>
      <point x="463" y="476"/>
      <point x="518" y="442"/>
      <point x="526" y="324" type="curve" smooth="yes"/>
      <point x="532" y="237"/>
      <point x="525" y="124"/>
      <point x="522" y="30" type="curve"/>
      <point x="522" y="12"/>
      <point x="537" y="0"/>
      <point x="559" y="0" type="curve"/>
      <point x="714" y="0" type="line"/>
      <point x="714" y="64" type="line"/>
      <point x="625" y="90" type="line"/>
      <point x="625" y="138"/>
      <point x="631" y="238"/>
      <point x="625" y="346" type="curve" smooth="yes"/>
      <point x="618" y="469"/>
      <point x="569" y="565"/>
      <point x="406" y="565" type="curve"/>
      <point x="279" y="565"/>
      <point x="200" y="496"/>
      <point x="200" y="425" type="curve"/>
      <point x="214" y="423" type="line"/>
      <point x="209" y="523" type="line"/>
      <point x="208" y="542"/>
      <point x="197" y="550"/>
      <point x="179" y="550" type="curve"/>
      <point x="50" y="550" type="line"/>
      <point x="50" y="491" type="line"/>
      <point x="128" y="463" type="line"/>
      <point x="122" y="47" type="line"/>
      <point x="122" y="16"/>
      <point x="135" y="0"/>
      <point x="157" y="0" type="curve"/>
      <point x="321" y="0" type="line"/>
      <point x="321" y="64" type="line"/>
      <point x="227" y="90" type="line"/>
      <point x="226" y="157"/>
      <point x="227" y="233"/>
    </contour>
  </outline>
</glyph>
<glyph name="o" format="1">
  <advance width="678"/>
  <unicode hex="006F"/>
  <outline>
    <contour>
      <point x="339" y="567" type="curve" smooth="yes"/>
      <point x="498" y="567"/>
      <point x="628" y="435"/>
      <point x="628" y="274" type="curve" smooth="yes"/>
      <point x="628" y="114"/>
      <point x="498" y="-18"/>
      <point x="339" y="-18" type="curve" smooth="yes"/>
      <point x="180" y="-18"/>
      <point x="50" y="114"/>
      <point x="50" y="274" type="curve" smooth="yes"/>
      <point x="50" y="435"/>
      <point x="180" y="567"/>
    </contour>
    <contour>
      <point x="156" y="274" type="curve" smooth="yes"/>
      <point x="156" y="171"/>
      <point x="239" y="83"/>
      <point x="339" y="83" type="curve" smooth="yes"/>
      <point x="446" y="83"/>
      <point x="522" y="171"/>
      <point x="522" y="274" type="curve" smooth="yes"/>
      <point x="522" y="377"/>
      <point x="439" y="466"/>
      <point x="339" y="466" type="curve" smooth="yes"/>
      <point x="235" y="466"/>
      <point x="156" y="377"/>
    </contour>
  </outline>
</glyph>
<glyph name="p" format="1">
  <advance width="719"/>
  <unicode hex="0070"/>
  <outline>
    <contour>
      <point x="401" y="83" type="curve"/>
      <point x="309" y="83"/>
      <point x="228" y="158"/>
      <point x="228" y="275" type="curve" smooth="yes"/>
      <point x="228" y="389"/>
      <point x="300" y="471"/>
      <point x="412" y="471" type="curve" smooth="yes"/>
      <point x="523" y="471"/>
      <point x="587" y="383"/>
      <point x="587" y="275" type="curve" smooth="yes"/>
      <point x="587" y="167"/>
      <point x="527" y="83"/>
    </contour>
    <contour>
      <point x="127" y="461" type="curve"/>
      <point x="132" y="375"/>
      <point x="130" y="-38"/>
      <point x="127" y="-158" type="curve"/>
      <point x="127" y="-167"/>
      <point x="117" y="-171"/>
      <point x="111" y="-176" type="curve" smooth="yes"/>
      <point x="103" y="-182"/>
      <point x="86" y="-198"/>
      <point x="83" y="-201" type="curve" smooth="yes"/>
      <point x="81" y="-208"/>
      <point x="81" y="-213"/>
      <point x="80" y="-225" type="curve" smooth="yes"/>
      <point x="81" y="-239"/>
      <point x="82" y="-245"/>
      <point x="83" y="-250" type="curve"/>
      <point x="308" y="-250" type="line"/>
      <point x="310" y="-245"/>
      <point x="312" y="-239"/>
      <point x="312" y="-225" type="curve" smooth="yes"/>
      <point x="312" y="-213"/>
      <point x="311" y="-208"/>
      <point x="307" y="-201" type="curve"/>
      <point x="306" y="-198"/>
      <point x="248" y="-182"/>
      <point x="235" y="-176" type="curve" smooth="yes"/>
      <point x="227" y="-173"/>
      <point x="224" y="-168"/>
      <point x="223" y="-160" type="curve"/>
      <point x="223" y="-150"/>
      <point x="223" y="100"/>
      <point x="223" y="138" type="curve"/>
      <point x="211" y="126" type="line"/>
      <point x="211" y="49"/>
      <point x="300" y="-15"/>
      <point x="409" y="-15" type="curve" smooth="yes"/>
      <point x="568" y="-15"/>
      <point x="689" y="115"/>
      <point x="689" y="276" type="curve" smooth="yes"/>
      <point x="689" y="436"/>
      <point x="579" y="565"/>
      <point x="420" y="565" type="curve" smooth="yes"/>
      <point x="292" y="565"/>
      <point x="213" y="465"/>
      <point x="213" y="418" type="curve"/>
      <point x="224" y="418" type="line"/>
      <point x="220" y="523" type="line"/>
      <point x="219" y="542"/>
      <point x="208" y="550"/>
      <point x="190" y="550" type="curve"/>
      <point x="55" y="550" type="line"/>
      <point x="53" y="544"/>
      <point x="52" y="538"/>
      <point x="52" y="525" type="curve" smooth="yes"/>
      <point x="52" y="512"/>
      <point x="52" y="511"/>
      <point x="55" y="505" type="curve" smooth="yes"/>
      <point x="57" y="501"/>
      <point x="101" y="483"/>
      <point x="117" y="477" type="curve" smooth="yes"/>
      <point x="124" y="474"/>
      <point x="127" y="468"/>
    </contour>
  </outline>
</glyph>
<glyph name="q" format="1">
  <advance width="646"/>
  <unicode hex="0071"/>
  <outline>
    <contour>
      <point x="489" y="276" type="curve" smooth="yes"/>
      <point x="489" y="167"/>
      <point x="419" y="69"/>
      <point x="322" y="69" type="curve"/>
      <point x="220" y="69"/>
      <point x="143" y="138"/>
      <point x="143" y="268" type="curve"/>
      <point x="143" y="378"/>
      <point x="207" y="465"/>
      <point x="313" y="465" type="curve"/>
      <point x="421" y="465"/>
      <point x="489" y="401"/>
    </contour>
    <contour>
      <point x="488" y="-223" type="line"/>
      <point x="489" y="-242"/>
      <point x="500" y="-250"/>
      <point x="518" y="-250" type="curve"/>
      <point x="663" y="-250" type="line"/>
      <point x="669" y="-250"/>
      <point x="673" y="-237"/>
      <point x="673" y="-225" type="curve"/>
      <point x="673" y="-214"/>
      <point x="668" y="-199"/>
      <point x="663" y="-199" type="curve"/>
      <point x="591" y="-163" type="line"/>
      <point x="591" y="546" type="line"/>
      <point x="554" y="546" type="line"/>
      <point x="543" y="546"/>
      <point x="538" y="539"/>
      <point x="534" y="531" type="curve"/>
      <point x="481" y="462" type="line"/>
      <point x="499" y="464" type="line"/>
      <point x="499" y="526"/>
      <point x="392" y="562"/>
      <point x="317" y="562" type="curve"/>
      <point x="176" y="562"/>
      <point x="41" y="454"/>
      <point x="41" y="260" type="curve"/>
      <point x="41" y="108"/>
      <point x="135" y="-19"/>
      <point x="312" y="-19" type="curve"/>
      <point x="405" y="-19"/>
      <point x="503" y="45"/>
      <point x="503" y="89" type="curve"/>
      <point x="488" y="83" type="line"/>
    </contour>
  </outline>
</glyph>
<glyph name="r" format="1">
  <advance width="489"/>
  <unicode hex="0072"/>
  <outline>
    <contour>
      <point x="128" y="91" type="line"/>
      <point x="128" y="82"/>
      <point x="126" y="79"/>
      <point x="120" y="74" type="curve" smooth="yes"/>
      <point x="112" y="68"/>
      <point x="90" y="52"/>
      <point x="87" y="49" type="curve" smooth="yes"/>
      <point x="85" y="42"/>
      <point x="85" y="37"/>
      <point x="84" y="25" type="curve" smooth="yes"/>
      <point x="85" y="11"/>
      <point x="86" y="5"/>
      <point x="87" y="0" type="curve"/>
      <point x="316" y="0" type="line"/>
      <point x="319" y="5"/>
      <point x="320" y="11"/>
      <point x="319" y="25" type="curve" smooth="yes"/>
      <point x="320" y="37"/>
      <point x="320" y="42"/>
      <point x="316" y="49" type="curve" smooth="yes"/>
      <point x="315" y="52"/>
      <point x="257" y="67"/>
      <point x="245" y="74" type="curve"/>
      <point x="237" y="76"/>
      <point x="234" y="83"/>
      <point x="233" y="95" type="curve"/>
      <point x="233" y="119"/>
      <point x="232.25" y="272.0"/>
      <point x="233" y="328" type="curve"/>
      <point x="234" y="417"/>
      <point x="285" y="474"/>
      <point x="354" y="474" type="curve"/>
      <point x="386" y="474"/>
      <point x="415" y="453"/>
      <point x="415" y="451" type="curve"/>
      <point x="427" y="448"/>
      <point x="438" y="448"/>
      <point x="448" y="453" type="curve"/>
      <point x="458" y="463"/>
      <point x="465" y="538"/>
      <point x="459" y="543" type="curve" smooth="yes"/>
      <point x="438" y="560"/>
      <point x="397" y="565"/>
      <point x="370" y="565" type="curve"/>
      <point x="312" y="565"/>
      <point x="260" y="525"/>
      <point x="209" y="471" type="curve"/>
      <point x="228" y="457" type="line"/>
      <point x="236" y="523" type="line"/>
      <point x="235" y="542"/>
      <point x="224" y="550"/>
      <point x="206" y="550" type="curve"/>
      <point x="56" y="550" type="line"/>
      <point x="54" y="544"/>
      <point x="53" y="538"/>
      <point x="53" y="525" type="curve" smooth="yes"/>
      <point x="53" y="512"/>
      <point x="53" y="511"/>
      <point x="56" y="505" type="curve" smooth="yes"/>
      <point x="58" y="501"/>
      <point x="102" y="483"/>
      <point x="118" y="477" type="curve" smooth="yes"/>
      <point x="125" y="474"/>
      <point x="128" y="468"/>
      <point x="128" y="461" type="curve"/>
    </contour>
  </outline>
</glyph>
<glyph name="s" format="1">
  <advance width="472"/>
  <unicode hex="0073"/>
  <outline>
    <contour>
      <point x="283" y="318" type="curve" smooth="yes"/>
      <point x="246" y="333"/>
      <point x="157" y="363"/>
      <point x="157" y="419" type="curve"/>
      <point x="157" y="466"/>
      <point x="206" y="486"/>
      <point x="256" y="486" type="curve"/>
      <point x="318" y="486"/>
      <point x="362" y="454"/>
      <point x="362" y="426" type="curve"/>
      <point x="382" y="424" type="line"/>
      <point x="404" y="426" type="line"/>
      <point x="391" y="538" type="line"/>
      <point x="391" y="542"/>
      <point x="358" y="566"/>
      <point x="264" y="566" type="curve"/>
      <point x="165" y="566"/>
      <point x="56" y="505"/>
      <point x="56" y="408" type="curve"/>
      <point x="56" y="305"/>
      <point x="151" y="269"/>
      <point x="186" y="253" type="curve" smooth="yes"/>
      <point x="221" y="237"/>
      <point x="329" y="214"/>
      <point x="329" y="148" type="curve"/>
      <point x="329" y="96"/>
      <point x="272" y="75"/>
      <point x="220" y="75" type="curve"/>
      <point x="146" y="75"/>
      <point x="96" y="115"/>
      <point x="96" y="164" type="curve"/>
      <point x="70" y="167" type="line"/>
      <point x="45" y="164" type="line"/>
      <point x="64" y="49" type="line"/>
      <point x="60" y="49"/>
      <point x="116" y="-12"/>
      <point x="230" y="-12" type="curve"/>
      <point x="336" y="-12"/>
      <point x="427" y="52"/>
      <point x="427" y="158" type="curve"/>
      <point x="427" y="265"/>
      <point x="313" y="306"/>
    </contour>
  </outline>
</glyph>
<glyph name="t" format="1">
  <advance width="486"/>
  <unicode hex="0074"/>
  <outline>
    <contour>
      <point x="318" y="0" type="curve"/>
      <point x="408" y="0"/>
      <point x="442" y="25"/>
      <point x="445" y="29" type="curve"/>
      <point x="470" y="150" type="line"/>
      <point x="468" y="153"/>
      <point x="454" y="154"/>
      <point x="445" y="154" type="curve"/>
      <point x="437" y="154"/>
      <point x="421" y="153"/>
      <point x="417" y="150" type="curve"/>
      <point x="402" y="109"/>
      <point x="383" y="86"/>
      <point x="323" y="86" type="curve"/>
      <point x="243" y="86"/>
      <point x="228" y="138"/>
      <point x="228" y="219" type="curve"/>
      <point x="228" y="471" type="line"/>
      <point x="412" y="471" type="line"/>
      <point x="416" y="471"/>
      <point x="424" y="507"/>
      <point x="424" y="523" type="curve" smooth="yes"/>
      <point x="424" y="543"/>
      <point x="416" y="551"/>
      <point x="411" y="551" type="curve"/>
      <point x="227" y="550" type="line"/>
      <point x="225" y="681" type="line"/>
      <point x="218" y="687"/>
      <point x="198" y="690"/>
      <point x="188" y="689" type="curve" smooth="yes"/>
      <point x="177" y="689"/>
      <point x="157" y="685"/>
      <point x="150" y="679" type="curve"/>
      <point x="150" y="560"/>
      <point x="65" y="530"/>
      <point x="44" y="530" type="curve" smooth="yes"/>
      <point x="37" y="530"/>
      <point x="32" y="514"/>
      <point x="32" y="500" type="curve" smooth="yes"/>
      <point x="32" y="489"/>
      <point x="40" y="473"/>
      <point x="47" y="473" type="curve"/>
      <point x="123" y="473" type="line"/>
      <point x="123" y="211" type="line"/>
      <point x="123" y="106"/>
      <point x="163" y="0"/>
    </contour>
  </outline>
</glyph>
<glyph name="u" format="1">
  <advance width="726"/>
  <unicode hex="0075"/>
  <outline>
    <contour>
      <point x="515" y="231" type="curve" smooth="yes"/>
      <point x="515" y="156"/>
      <point x="455" y="76"/>
      <point x="362" y="74" type="curve"/>
      <point x="290" y="76"/>
      <point x="222" y="109"/>
      <point x="222" y="227" type="curve" smooth="yes"/>
      <point x="222" y="314"/>
      <point x="222" y="425"/>
      <point x="222" y="520" type="curve" smooth="yes"/>
      <point x="222" y="538"/>
      <point x="206" y="550"/>
      <point x="184" y="550" type="curve"/>
      <point x="28" y="550" type="line"/>
      <point x="23" y="550"/>
      <point x="19" y="534"/>
      <point x="19" y="525" type="curve" smooth="yes"/>
      <point x="19" y="516"/>
      <point x="24" y="500"/>
      <point x="28" y="498" type="curve"/>
      <point x="110" y="474" type="line"/>
      <point x="114" y="473"/>
      <point x="119" y="469"/>
      <point x="119" y="465" type="curve" smooth="yes"/>
      <point x="119" y="414"/>
      <point x="119" y="308"/>
      <point x="119" y="204" type="curve" smooth="yes"/>
      <point x="119" y="81"/>
      <point x="192" y="-15"/>
      <point x="336" y="-15" type="curve"/>
      <point x="454" y="-15"/>
      <point x="542" y="73"/>
      <point x="542" y="132" type="curve"/>
      <point x="528" y="127" type="line"/>
      <point x="533" y="27" type="line"/>
      <point x="534" y="8"/>
      <point x="545" y="0"/>
      <point x="563" y="0" type="curve"/>
      <point x="692" y="0" type="line"/>
      <point x="697" y="0"/>
      <point x="701" y="18"/>
      <point x="701" y="30" type="curve" smooth="yes"/>
      <point x="701" y="42"/>
      <point x="697" y="56"/>
      <point x="692" y="59" type="curve"/>
      <point x="630" y="84" type="line"/>
      <point x="622" y="87"/>
      <point x="617" y="99"/>
      <point x="617" y="106" type="curve"/>
      <point x="617" y="503" type="line"/>
      <point x="617" y="534"/>
      <point x="604" y="550"/>
      <point x="582" y="550" type="curve"/>
      <point x="421" y="550" type="line"/>
      <point x="415" y="550"/>
      <point x="411" y="536"/>
      <point x="411" y="525" type="curve"/>
      <point x="411" y="515"/>
      <point x="413" y="501"/>
      <point x="421" y="497" type="curve"/>
      <point x="510" y="470" type="line"/>
      <point x="513" y="469"/>
      <point x="515" y="466"/>
      <point x="515" y="463" type="curve"/>
      <point x="516" y="396"/>
      <point x="515" y="300"/>
    </contour>
  </outline>
</glyph>
<glyph name="v" format="1">
  <advance width="640"/>
  <unicode hex="0076"/>
  <outline>
    <contour>
      <point x="191" y="523" type="line"/>
      <point x="188" y="541"/>
      <point x="179" y="550"/>
      <point x="161" y="550" type="curve"/>
      <point x="15" y="550" type="line"/>
      <point x="8" y="550"/>
      <point x="6" y="531"/>
      <point x="6" y="522" type="curve" smooth="yes"/>
      <point x="6" y="514"/>
      <point x="11" y="499"/>
      <point x="17" y="498" type="curve"/>
      <point x="95" y="478" type="line"/>
      <point x="103" y="473"/>
      <point x="103" y="465"/>
      <point x="105" y="461" type="curve"/>
      <point x="261" y="13" type="line"/>
      <point x="263" y="7"/>
      <point x="269" y="2"/>
      <point x="277" y="0" type="curve"/>
      <point x="355" y="0" type="line"/>
      <point x="363" y="3"/>
      <point x="370" y="8"/>
      <point x="372" y="15" type="curve"/>
      <point x="583" y="472" type="line"/>
      <point x="585" y="476"/>
      <point x="587" y="478"/>
      <point x="592" y="481" type="curve" smooth="yes"/>
      <point x="597" y="484"/>
      <point x="618" y="493"/>
      <point x="626" y="497" type="curve" smooth="yes"/>
      <point x="630" y="499"/>
      <point x="631" y="513"/>
      <point x="631" y="525" type="curve" smooth="yes"/>
      <point x="631" y="533"/>
      <point x="629" y="550"/>
      <point x="622" y="550" type="curve"/>
      <point x="413" y="550" type="line"/>
      <point x="409" y="550"/>
      <point x="408" y="532"/>
      <point x="408" y="524" type="curve" smooth="yes"/>
      <point x="408" y="514"/>
      <point x="410" y="500"/>
      <point x="413" y="498" type="curve"/>
      <point x="482" y="477" type="line"/>
      <point x="487" y="477"/>
      <point x="487" y="472"/>
      <point x="487" y="470" type="curve"/>
      <point x="312" y="88" type="line"/>
      <point x="334" y="86" type="line"/>
    </contour>
  </outline>
</glyph>
<glyph name="w" format="1">
  <advance width="989"/>
  <unicode hex="0077"/>
  <outline>
    <contour>
      <point x="656" y="0" type="line"/>
      <point x="763" y="0" type="line"/>
      <point x="965" y="493" type="line"/>
      <point x="968" y="496"/>
      <point x="970" y="513"/>
      <point x="970" y="525" type="curve" smooth="yes"/>
      <point x="970" y="533"/>
      <point x="968" y="550"/>
      <point x="961" y="550" type="curve"/>
      <point x="781" y="550" type="line"/>
      <point x="777" y="550"/>
      <point x="776" y="532"/>
      <point x="776" y="524" type="curve" smooth="yes"/>
      <point x="776" y="514"/>
      <point x="780" y="504"/>
      <point x="783" y="502" type="curve"/>
      <point x="851" y="482" type="line"/>
      <point x="856" y="482"/>
      <point x="856" y="477"/>
      <point x="856" y="475" type="curve"/>
      <point x="722" y="112" type="line"/>
      <point x="590" y="485" type="line"/>
      <point x="619" y="506" type="line"/>
      <point x="619" y="513"/>
      <point x="620" y="520"/>
      <point x="620" y="526" type="curve" smooth="yes"/>
      <point x="620" y="534"/>
      <point x="618" y="551"/>
      <point x="611" y="551" type="curve"/>
      <point x="413" y="551" type="line"/>
      <point x="409" y="551"/>
      <point x="408" y="533"/>
      <point x="408" y="525" type="curve" smooth="yes"/>
      <point x="408" y="515"/>
      <point x="410" y="501"/>
      <point x="413" y="499" type="curve"/>
      <point x="413" y="499"/>
      <point x="481" y="476"/>
      <point x="481" y="476" type="curve"/>
      <point x="343" y="112" type="line"/>
      <point x="226" y="494" type="line"/>
      <point x="257" y="510" type="line"/>
      <point x="261" y="532" type="line"/>
      <point x="258" y="550"/>
      <point x="259" y="550"/>
      <point x="241" y="550" type="curve"/>
      <point x="60" y="550" type="line"/>
      <point x="53" y="550"/>
      <point x="51" y="531"/>
      <point x="51" y="522" type="curve" smooth="yes"/>
      <point x="51" y="514"/>
      <point x="57" y="501"/>
      <point x="63" y="500" type="curve"/>
      <point x="130" y="476" type="line"/>
      <point x="277" y="0" type="line"/>
      <point x="384" y="0" type="line"/>
      <point x="543" y="413" type="line"/>
      <point x="520" y="414" type="line"/>
    </contour>
  </outline>
</glyph>
<glyph name="x" format="1">
  <advance width="500"/>
  <unicode hex="0078"/>
  <outline>
    <contour>
      <point x="509" y="32" type="line"/>
      <point x="504" y="37"/>
      <point x="337" y="256"/>
      <point x="281" y="333" type="curve"/>
      <point x="288" y="285" type="line"/>
      <point x="339" y="357"/>
      <point x="479" y="543"/>
      <point x="488" y="551" type="curve" smooth="yes"/>
      <point x="371" y="546" type="line"/>
      <point x="365" y="536"/>
      <point x="270" y="413"/>
      <point x="225" y="357" type="curve"/>
      <point x="255" y="357" type="line"/>
      <point x="220" y="404"/>
      <point x="117" y="540"/>
      <point x="113" y="546" type="curve" smooth="yes"/>
      <point x="-20" y="548" type="line"/>
      <point x="-16" y="542"/>
      <point x="135" y="350"/>
      <point x="187" y="281" type="curve"/>
      <point x="184" y="318" type="line"/>
      <point x="131" y="245"/>
      <point x="-21" y="40"/>
      <point x="-31" y="30" type="curve" smooth="yes"/>
      <point x="97" y="30" type="line"/>
      <point x="102" y="40"/>
      <point x="218" y="196"/>
      <point x="259" y="249" type="curve"/>
      <point x="216" y="248" type="line"/>
      <point x="256" y="196"/>
      <point x="375" y="38"/>
      <point x="379" y="31" type="curve"/>
    </contour>
  </outline>
</glyph>
<glyph name="y" format="1">
  <advance width="688"/>
  <unicode hex="0079"/>
  <outline>
    <contour>
      <point x="201" y="523" type="line"/>
      <point x="196" y="541"/>
      <point x="189" y="550"/>
      <point x="171" y="550" type="curve"/>
      <point x="29" y="550" type="line"/>
      <point x="22" y="550"/>
      <point x="20" y="531"/>
      <point x="20" y="522" type="curve" smooth="yes"/>
      <point x="20" y="514"/>
      <point x="25" y="497"/>
      <point x="31" y="496" type="curve"/>
      <point x="107" y="475" type="line"/>
      <point x="284" y="4" type="line"/>
      <point x="257" y="-50"/>
      <point x="211" y="-121"/>
      <point x="176" y="-168" type="curve" smooth="yes"/>
      <point x="169" y="-178"/>
      <point x="132" y="-222"/>
      <point x="126" y="-230" type="curve" smooth="yes"/>
      <point x="121" y="-237"/>
      <point x="120" y="-245"/>
      <point x="123" y="-248" type="curve" smooth="yes"/>
      <point x="129" y="-253"/>
      <point x="224" y="-266"/>
      <point x="235" y="-266" type="curve"/>
      <point x="244" y="-266"/>
      <point x="251" y="-263"/>
      <point x="254" y="-258" type="curve" smooth="yes"/>
      <point x="273" y="-221"/>
      <point x="604" y="441"/>
      <point x="621" y="472" type="curve"/>
      <point x="623" y="476"/>
      <point x="625" y="478"/>
      <point x="630" y="481" type="curve" smooth="yes"/>
      <point x="635" y="484"/>
      <point x="656" y="493"/>
      <point x="664" y="497" type="curve" smooth="yes"/>
      <point x="668" y="499"/>
      <point x="669" y="513"/>
      <point x="669" y="525" type="curve" smooth="yes"/>
      <point x="669" y="533"/>
      <point x="667" y="550"/>
      <point x="660" y="550" type="curve"/>
      <point x="441" y="550" type="line"/>
      <point x="437" y="550"/>
      <point x="436" y="532"/>
      <point x="436" y="524" type="curve" smooth="yes"/>
      <point x="436" y="514"/>
      <point x="438" y="502"/>
      <point x="441" y="500" type="curve"/>
      <point x="509" y="480" type="line"/>
      <point x="514" y="480"/>
      <point x="514" y="475"/>
      <point x="514" y="473" type="curve"/>
      <point x="325" y="67" type="line"/>
      <point x="366" y="63" type="line"/>
    </contour>
  </outline>
</glyph>
<glyph name="z" format="1">
  <advance width="500"/>
  <unicode hex="007A"/>
  <outline>
    <contour>
      <point x="397" y="73" type="line"/>
      <point x="406" y="73"/>
      <point x="410" y="79"/>
      <point x="412" y="85" type="curve"/>
      <point x="418" y="99"/>
      <point x="443" y="153"/>
      <point x="447" y="154" type="curve" smooth="yes"/>
      <point x="452" y="157"/>
      <point x="456" y="157"/>
      <point x="467" y="157" type="curve" smooth="yes"/>
      <point x="478" y="157"/>
      <point x="483" y="156"/>
      <point x="488" y="154" type="curve"/>
      <point x="455" y="1" type="line"/>
      <point x="44" y="1" type="line"/>
      <point x="34" y="1"/>
      <point x="27" y="20"/>
      <point x="27" y="34" type="curve"/>
      <point x="27" y="46"/>
      <point x="30" y="67"/>
      <point x="34" y="73" type="curve"/>
      <point x="370" y="493" type="line"/>
      <point x="374" y="482" type="line"/>
      <point x="156" y="482" type="line"/>
      <point x="147" y="483"/>
      <point x="138" y="479"/>
      <point x="133" y="471" type="curve" smooth="yes"/>
      <point x="127" y="460"/>
      <point x="81" y="394"/>
      <point x="78" y="391" type="curve" smooth="yes"/>
      <point x="73" y="389"/>
      <point x="69" y="389"/>
      <point x="58" y="389" type="curve" smooth="yes"/>
      <point x="47" y="389"/>
      <point x="42" y="390"/>
      <point x="37" y="391" type="curve"/>
      <point x="74" y="542" type="line"/>
      <point x="76" y="549"/>
      <point x="79" y="553"/>
      <point x="86" y="556" type="curve"/>
      <point x="451" y="556" type="line"/>
      <point x="461" y="556"/>
      <point x="469" y="538"/>
      <point x="469" y="528" type="curve"/>
      <point x="469" y="515"/>
      <point x="469" y="488"/>
      <point x="462" y="482" type="curve"/>
      <point x="132" y="56" type="line"/>
      <point x="130" y="73" type="line"/>
    </contour>
  </outline>
</glyph>
<glyph name="quoteleft" format="1">
  <advance width="500"/>
  <unicode hex="2018"/>
  <outline>
    <contour>
      <point x="179" y="651" type="line"/>
      <point x="173" y="651"/>
      <point x="165" y="646"/>
      <point x="165" y="634" type="curve"/>
      <point x="165" y="440" type="line"/>
      <point x="165" y="379"/>
      <point x="185" y="363"/>
      <point x="244" y="363" type="curve" smooth="yes"/>
      <point x="301" y="363"/>
      <point x="322" y="379"/>
      <point x="322" y="440" type="curve" smooth="yes"/>
      <point x="322" y="497"/>
      <point x="316" y="521"/>
      <point x="243" y="521" type="curve"/>
      <point x="259" y="487" type="line"/>
      <point x="258" y="636" type="line"/>
      <point x="258" y="647"/>
      <point x="256" y="651"/>
      <point x="248" y="651" type="curve"/>
    </contour>
  </outline>
</glyph>
<glyph name="quoteright" format="1">
  <advance width="500"/>
  <unicode hex="2019"/>
  <outline>
    <contour>
      <point x="308" y="363" type="line"/>
      <point x="314" y="363"/>
      <point x="322" y="368"/>
      <point x="322" y="380" type="curve"/>
      <point x="322" y="574" type="line"/>
      <point x="322" y="635"/>
      <point x="302" y="651"/>
      <point x="243" y="651" type="curve" smooth="yes"/>
      <point x="186" y="651"/>
      <point x="165" y="635"/>
      <point x="165" y="574" type="curve" smooth="yes"/>
      <point x="165" y="517"/>
      <point x="171" y="493"/>
      <point x="244" y="493" type="curve"/>
      <point x="228" y="527" type="line"/>
      <point x="229" y="378" type="line"/>
      <point x="229" y="367"/>
      <point x="231" y="363"/>
      <point x="239" y="363" type="curve"/>
    </contour>
  </outline>
</glyph>
<glyph name="H2" format="1">
  <advance width="782"/>
  <outline>
    <contour>
      <point x="33" y="700" type="line"/>
      <point x="33" y="651" type="line"/>
      <point x="87" y="629" type="line"/>
      <point x="87" y="23" type="line"/>
      <point x="87" y="9"/>
      <point x="98" y="-1"/>
      <point x="110" y="0" type="curve"/>
      <point x="262" y="0" type="line"/>
      <point x="262" y="42" type="line"/>
      <point x="225" y="42"/>
      <point x="194" y="59"/>
      <point x="194" y="89" type="curve" smooth="yes"/>
      <point x="194" y="107"/>
      <point x="194" y="544"/>
      <point x="194" y="700" type="curve"/>
    </contour>
    <contour>
      <point x="494" y="700" type="line"/>
      <point x="494" y="651" type="line"/>
      <point x="548" y="629" type="line"/>
      <point x="548" y="23" type="line"/>
      <point x="548" y="9"/>
      <point x="559" y="-1"/>
      <point x="571" y="0" type="curve"/>
      <point x="723" y="0" type="line"/>
      <point x="723" y="42" type="line"/>
      <point x="686" y="42"/>
      <point x="655" y="59"/>
      <point x="655" y="89" type="curve" smooth="yes"/>
      <point x="655" y="107"/>
      <point x="655" y="544"/>
      <point x="655" y="700" type="curve"/>
    </contour>
    <contour>
      <point x="131" y="450" type="line"/>
      <point x="131" y="347" type="line"/>
      <point x="588" y="347" type="line"/>
      <point x="588" y="450" type="line"/>
    </contour>
  </outline>
</glyph>
<glyph name="alt-P" format="1">
  <advance width="584"/>
  <outline>
    <contour>
      <point x="183" y="235" type="line"/>
      <point x="192" y="226"/>
      <point x="259" y="225"/>
      <point x="279" y="225" type="curve" smooth="yes"/>
      <point x="396" y="225"/>
      <point x="555" y="310"/>
      <point x="555" y="481" type="curve"/>
      <point x="555" y="635"/>
      <point x="438" y="702"/>
      <point x="283" y="702" type="curve"/>
      <point x="199" y="702"/>
      <point x="43" y="698"/>
      <point x="28" y="694" type="curve"/>
      <point x="26" y="688"/>
      <point x="25" y="682"/>
      <point x="25" y="669" type="curve" smooth="yes"/>
      <point x="25" y="656"/>
      <point x="25" y="651"/>
      <point x="28" y="645" type="curve" smooth="yes"/>
      <point x="30" y="641"/>
      <point x="72" y="626"/>
      <point x="87" y="617" type="curve"/>
      <point x="94" y="614"/>
      <point x="98" y="608"/>
      <point x="98" y="601" type="curve"/>
      <point x="98" y="86" type="line" smooth="yes"/>
      <point x="98" y="75"/>
      <point x="92" y="71"/>
      <point x="85" y="68" type="curve" smooth="yes"/>
      <point x="71" y="61"/>
      <point x="40" y="47"/>
      <point x="38" y="43" type="curve" smooth="yes"/>
      <point x="35" y="37"/>
      <point x="35" y="32"/>
      <point x="35" y="19" type="curve" smooth="yes"/>
      <point x="35" y="6"/>
      <point x="36" y="0"/>
      <point x="38" y="-6" type="curve"/>
      <point x="277" y="-6" type="line"/>
      <point x="279" y="0"/>
      <point x="280" y="6"/>
      <point x="280" y="19" type="curve" smooth="yes"/>
      <point x="280" y="32"/>
      <point x="280" y="37"/>
      <point x="277" y="43" type="curve" smooth="yes"/>
      <point x="275" y="47"/>
      <point x="228" y="62"/>
      <point x="217" y="68" type="curve"/>
      <point x="208" y="71"/>
      <point x="202" y="78"/>
      <point x="202" y="89" type="curve"/>
      <point x="200" y="637" type="line"/>
      <point x="184" y="614" type="line"/>
      <point x="207" y="623"/>
      <point x="267" y="619"/>
      <point x="301" y="619" type="curve" smooth="yes"/>
      <point x="376" y="619"/>
      <point x="458" y="575"/>
      <point x="458" y="474" type="curve"/>
      <point x="458" y="368"/>
      <point x="347" y="304"/>
      <point x="265" y="304" type="curve" smooth="yes"/>
      <point x="253" y="304"/>
      <point x="196" y="303"/>
      <point x="183" y="304" type="curve"/>
    </contour>
  </outline>
</glyph>
<glyph name="alt-g" format="1">
  <advance width="622"/>
  <outline>
    <contour>
      <point x="301" y="558" type="curve" smooth="yes"/>
      <point x="439" y="558"/>
      <point x="550" y="446"/>
      <point x="550" y="311" type="curve" smooth="yes"/>
      <point x="550" y="175"/>
      <point x="439" y="63"/>
      <point x="301" y="63" type="curve" smooth="yes"/>
      <point x="163" y="63"/>
      <point x="52" y="175"/>
      <point x="52" y="311" type="curve" smooth="yes"/>
      <point x="52" y="446"/>
      <point x="163" y="558"/>
    </contour>
    <contour>
      <point x="153" y="310" type="curve" smooth="yes"/>
      <point x="153" y="224"/>
      <point x="221" y="148"/>
      <point x="301" y="148" type="curve" smooth="yes"/>
      <point x="387" y="148"/>
      <point x="449" y="224"/>
      <point x="449" y="310" type="curve" smooth="yes"/>
      <point x="449" y="396"/>
      <point x="381" y="472"/>
      <point x="301" y="472" type="curve" smooth="yes"/>
      <point x="218" y="472"/>
      <point x="153" y="396"/>
    </contour>
    <contour>
      <point x="384" y="110" type="line"/>
      <point x="458" y="110"/>
      <point x="570" y="44"/>
      <point x="570" y="-111" type="curve"/>
      <point x="570" y="-263"/>
      <point x="454" y="-378"/>
      <point x="301" y="-378" type="curve"/>
      <point x="128" y="-378"/>
      <point x="62" y="-228"/>
      <point x="62" y="-112" type="curve"/>
      <point x="136" y="-112" type="line"/>
      <point x="136" y="-195"/>
      <point x="196" y="-286"/>
      <point x="304" y="-286" type="curve"/>
      <point x="391" y="-286"/>
      <point x="463" y="-208"/>
      <point x="463" y="-114" type="curve"/>
      <point x="463" y="-32"/>
      <point x="411" y="65"/>
      <point x="307" y="65" type="curve"/>
    </contour>
    <contour>
      <point x="419" y="518" type="line"/>
      <point x="549" y="585" type="line"/>
      <point x="612" y="585" type="line"/>
      <point x="601" y="506" type="line"/>
      <point x="558" y="508" type="line"/>
      <point x="471" y="467" type="line"/>
    </contour>
  </outline>
</glyph>
<glyph name="quotedblleft" format="1">
  <advance width="460"/>
  <outline>
    <contour>
      <point x="262" y="751" type="line"/>
      <point x="256" y="751"/>
      <point x="248" y="746"/>
      <point x="248" y="734" type="curve"/>
      <point x="248" y="540" type="line"/>
      <point x="248" y="479"/>
      <point x="268" y="463"/>
      <point x="327" y="463" type="curve" smooth="yes"/>
      <point x="384" y="463"/>
      <point x="405" y="479"/>
      <point x="405" y="540" type="curve" smooth="yes"/>
      <point x="405" y="597"/>
      <point x="399" y="621"/>
      <point x="326" y="621" type="curve"/>
      <point x="342" y="587" type="line"/>
      <point x="341" y="736" type="line"/>
      <point x="341" y="747"/>
      <point x="339" y="751"/>
      <point x="331" y="751" type="curve"/>
    </contour>
    <contour>
      <point x="62" y="751" type="line"/>
      <point x="56" y="751"/>
      <point x="48" y="746"/>
      <point x="48" y="734" type="curve"/>
      <point x="48" y="540" type="line"/>
      <point x="48" y="479"/>
      <point x="68" y="463"/>
      <point x="127" y="463" type="curve" smooth="yes"/>
      <point x="184" y="463"/>
      <point x="205" y="479"/>
      <point x="205" y="540" type="curve" smooth="yes"/>
      <point x="205" y="597"/>
      <point x="199" y="621"/>
      <point x="126" y="621" type="curve"/>
      <point x="142" y="587" type="line"/>
      <point x="141" y="736" type="line"/>
      <point x="141" y="747"/>
      <point x="139" y="751"/>
      <point x="131" y="751" type="curve"/>
    </contour>
  </outline>
</glyph>
<glyph name="quotedblright" format="1">
  <advance width="463"/>
  <outline>
    <contour>
      <point x="191" y="463" type="line"/>
      <point x="197" y="463"/>
      <point x="205" y="468"/>
      <point x="205" y="480" type="curve"/>
      <point x="205" y="674" type="line"/>
      <point x="205" y="735"/>
      <point x="185" y="751"/>
      <point x="126" y="751" type="curve" smooth="yes"/>
      <point x="69" y="751"/>
      <point x="48" y="735"/>
      <point x="48" y="674" type="curve" smooth="yes"/>
      <point x="48" y="617"/>
      <point x="54" y="593"/>
      <point x="127" y="593" type="curve"/>
      <point x="111" y="627" type="line"/>
      <point x="112" y="478" type="line"/>
      <point x="112" y="467"/>
      <point x="114" y="463"/>
      <point x="122" y="463" type="curve"/>
    </contour>
    <contour>
      <point x="391" y="463" type="line"/>
      <point x="397" y="463"/>
      <point x="405" y="468"/>
      <point x="405" y="480" type="curve"/>
      <point x="405" y="674" type="line"/>
      <point x="405" y="735"/>
      <point x="385" y="751"/>
      <point x="326" y="751" type="curve" smooth="yes"/>
      <point x="269" y="751"/>
      <point x="248" y="735"/>
      <point x="248" y="674" type="curve" smooth="yes"/>
      <point x="248" y="617"/>
      <point x="254" y="593"/>
      <point x="327" y="593" type="curve"/>
      <point x="311" y="627" type="line"/>
      <point x="312" y="478" type="line"/>
      <point x="312" y="467"/>
      <point x="314" y="463"/>
      <point x="322" y="463" type="curve"/>
    </contour>
  </outline>
</glyph>
